<?xml version="1.0" encoding="UTF-8"?>
<!DOCTYPE svg PUBLIC "-//W3C//DTD SVG 1.1//EN" "http://www.w3.org/Graphics/SVG/1.1/DTD/svg11.dtd">
<!-- Creator: CorelDRAW 2020 (64-Bit) -->
<svg xmlns="http://www.w3.org/2000/svg" xml:space="preserve" width="103px" height="35px" version="1.1" style="shape-rendering:geometricPrecision; text-rendering:geometricPrecision; image-rendering:optimizeQuality; fill-rule:evenodd; clip-rule:evenodd"
viewBox="0 0 5.16 1.75"
 xmlns:xlink="http://www.w3.org/1999/xlink"
 xmlns:xodm="http://www.corel.com/coreldraw/odm/2003">
 <defs>
  <style type="text/css">
   <![CDATA[
    .str0 {stroke:#213242;stroke-width:0.16;stroke-linejoin:round;stroke-miterlimit:22.9256}
    .fil0 {fill:none;fill-rule:nonzero}
    .fil52 {fill:black;fill-rule:nonzero}
    .fil43 {fill:#1D1D1B;fill-rule:nonzero}
    .fil50 {fill:#213242;fill-rule:nonzero}
    .fil42 {fill:#2B0001;fill-rule:nonzero}
    .fil41 {fill:#2C0001;fill-rule:nonzero}
    .fil40 {fill:#2D0001;fill-rule:nonzero}
    .fil39 {fill:#2E0001;fill-rule:nonzero}
    .fil38 {fill:#2F0001;fill-rule:nonzero}
    .fil37 {fill:#300001;fill-rule:nonzero}
    .fil36 {fill:#310001;fill-rule:nonzero}
    .fil35 {fill:#320001;fill-rule:nonzero}
    .fil34 {fill:#330001;fill-rule:nonzero}
    .fil33 {fill:#340001;fill-rule:nonzero}
    .fil32 {fill:#350001;fill-rule:nonzero}
    .fil31 {fill:#360001;fill-rule:nonzero}
    .fil30 {fill:#370001;fill-rule:nonzero}
    .fil29 {fill:#380101;fill-rule:nonzero}
    .fil28 {fill:#390101;fill-rule:nonzero}
    .fil27 {fill:#3A0101;fill-rule:nonzero}
    .fil26 {fill:#3C0101;fill-rule:nonzero}
    .fil25 {fill:#3D0101;fill-rule:nonzero}
    .fil24 {fill:#3F0101;fill-rule:nonzero}
    .fil23 {fill:#400101;fill-rule:nonzero}
    .fil22 {fill:#420101;fill-rule:nonzero}
    .fil21 {fill:#440101;fill-rule:nonzero}
    .fil20 {fill:#460101;fill-rule:nonzero}
    .fil19 {fill:#480101;fill-rule:nonzero}
    .fil2 {fill:#49535C;fill-rule:nonzero}
    .fil18 {fill:#4A0101;fill-rule:nonzero}
    .fil17 {fill:#4C0101;fill-rule:nonzero}
    .fil16 {fill:#4E0101;fill-rule:nonzero}
    .fil15 {fill:#510200;fill-rule:nonzero}
    .fil14 {fill:#530200;fill-rule:nonzero}
    .fil13 {fill:#560200;fill-rule:nonzero}
    .fil12 {fill:#590200;fill-rule:nonzero}
    .fil11 {fill:#5C0200;fill-rule:nonzero}
    .fil10 {fill:#5F0200;fill-rule:nonzero}
    .fil9 {fill:#620200;fill-rule:nonzero}
    .fil8 {fill:#660200;fill-rule:nonzero}
    .fil7 {fill:#690300;fill-rule:nonzero}
    .fil6 {fill:#6D0300;fill-rule:nonzero}
    .fil5 {fill:#710300;fill-rule:nonzero}
    .fil4 {fill:#750300;fill-rule:nonzero}
    .fil45 {fill:#B50102;fill-rule:nonzero}
    .fil49 {fill:#C7A57B;fill-rule:nonzero}
    .fil44 {fill:#C92C2C;fill-rule:nonzero}
    .fil3 {fill:#E1B783;fill-rule:nonzero}
    .fil54 {fill:white;fill-rule:nonzero}
    .fil1 {fill:white;fill-rule:nonzero}
    .fil47 {fill:url(#id0)}
    .fil48 {fill:url(#id1)}
    .fil46 {fill:url(#id2)}
    .fil58 {fill:url(#id3)}
    .fil57 {fill:url(#id4)}
    .fil53 {fill:url(#id5)}
    .fil51 {fill:url(#id6)}
    .fil56 {fill:url(#id7)}
    .fil55 {fill:url(#id8)}
   ]]>
  </style>
  <linearGradient id="id0" gradientUnits="userSpaceOnUse" x1="1.19" y1="1.39" x2="1.18" y2="1.4">
   <stop offset="0" style="stop-opacity:1; stop-color:#FF7E67"/>
   <stop offset="0.470588" style="stop-opacity:1; stop-color:#E4554A"/>
   <stop offset="1" style="stop-opacity:1; stop-color:#C92C2C"/>
  </linearGradient>
  <linearGradient id="id1" gradientUnits="userSpaceOnUse" xlink:href="#id0" x1="1.1" y1="1.34" x2="1.1" y2="1.36">
  </linearGradient>
  <linearGradient id="id2" gradientUnits="userSpaceOnUse" x1="1.17" y1="1.28" x2="1.18" y2="1.2">
   <stop offset="0" style="stop-opacity:1; stop-color:white"/>
   <stop offset="0.74902" style="stop-opacity:1; stop-color:#E3E3E3"/>
   <stop offset="1" style="stop-opacity:1; stop-color:#C6C6C6"/>
  </linearGradient>
  <linearGradient id="id3" gradientUnits="userSpaceOnUse" x1="1.5" y1="0.63" x2="1.47" y2="0.67">
   <stop offset="0" style="stop-opacity:1; stop-color:#49535C"/>
   <stop offset="0.419608" style="stop-opacity:1; stop-color:#35434F"/>
   <stop offset="1" style="stop-opacity:1; stop-color:#213242"/>
  </linearGradient>
  <linearGradient id="id4" gradientUnits="userSpaceOnUse" xlink:href="#id3" x1="1.13" y1="0.49" x2="1.13" y2="0.51">
  </linearGradient>
  <radialGradient id="id5" gradientUnits="userSpaceOnUse" gradientTransform="matrix(0.899497 -0 -0 -0.899368 0 2)" cx="1.1" cy="0.88" r="1.57" fx="1.1" fy="0.88">
   <stop offset="0" style="stop-opacity:1; stop-color:#49535C"/>
   <stop offset="0.419608" style="stop-opacity:1; stop-color:#35424F"/>
   <stop offset="1" style="stop-opacity:1; stop-color:#213242"/>
  </radialGradient>
  <radialGradient id="id6" gradientUnits="userSpaceOnUse" gradientTransform="matrix(0.870348 -0 -0 -0.870351 0 2)" cx="1.11" cy="0.88" r="3.48" fx="1.11" fy="0.88">
   <stop offset="0" style="stop-opacity:1; stop-color:#FEFCFE"/>
   <stop offset="0.419608" style="stop-opacity:1; stop-color:#F2F1F2"/>
   <stop offset="1" style="stop-opacity:1; stop-color:#E6E6E6"/>
  </radialGradient>
  <radialGradient id="id7" gradientUnits="userSpaceOnUse" gradientTransform="matrix(0.785931 -0 -0 -0.851808 0 2)" cx="1.4" cy="0.94" r="1.52" fx="1.4" fy="0.94">
   <stop offset="0" style="stop-opacity:1; stop-color:#49535C"/>
   <stop offset="0.419608" style="stop-opacity:1; stop-color:#3A4752"/>
   <stop offset="1" style="stop-opacity:1; stop-color:#2C3B49"/>
  </radialGradient>
  <radialGradient id="id8" gradientUnits="userSpaceOnUse" gradientTransform="matrix(0.814868 -0 -0 -0.901336 0 2)" xlink:href="#id6" cx="1.44" cy="0.94" r="3.09" fx="1.44" fy="0.94">
  </radialGradient>
 </defs>
 <g id="Capa_x0020_1">
  <metadata id="CorelCorpID_0Corel-Layer"/>
  <g id="_1877452503120">
   <g>
    <polygon class="fil0 str0" points="2.12,1.5 2.25,1.5 2.25,1.04 2.43,1.04 2.43,0.93 1.94,0.93 1.94,1.04 2.12,1.04 "/>
   </g>
   <g>
    <path id="1" class="fil0 str0" d="M2.8 1.07l0 0.21c0,0.08 -0.04,0.12 -0.1,0.12 -0.06,0 -0.09,-0.03 -0.09,-0.11l0 -0.22 -0.13 0 0 0.24c0,0.14 0.08,0.2 0.19,0.2 0.05,0 0.1,-0.02 0.13,-0.06l0 0.05 0.13 0 0 -0.43 -0.13 0z"/>
   </g>
   <g>
    <polygon id="2" class="fil0 str0" points="3.05,1.5 3.47,1.5 3.47,1.4 3.18,1.4 3.18,0.93 3.05,0.93 "/>
   </g>
   <g>
    <path id="3" class="fil0 str0" d="M3.74 1.51c0.14,0 0.24,-0.09 0.24,-0.23 0,-0.13 -0.1,-0.22 -0.24,-0.22 -0.14,0 -0.24,0.09 -0.24,0.22 0,0.14 0.1,0.23 0.24,0.23zm0 -0.1c-0.06,0 -0.11,-0.05 -0.11,-0.13 0,-0.07 0.05,-0.12 0.11,-0.12 0.06,0 0.11,0.05 0.11,0.12 0,0.08 -0.05,0.13 -0.11,0.13z"/>
   </g>
   <g>
    <path id="4" class="fil0 str0" d="M4.4 1.07l0 0.05c-0.04,-0.04 -0.09,-0.06 -0.15,-0.06 -0.12,0 -0.22,0.08 -0.22,0.21 0,0.13 0.1,0.21 0.22,0.21 0.06,0 0.11,-0.02 0.14,-0.05l0 0.02c0,0.08 -0.04,0.12 -0.13,0.12 -0.06,0 -0.12,-0.02 -0.15,-0.05l-0.05 0.09c0.05,0.04 0.13,0.06 0.21,0.06 0.16,0 0.25,-0.08 0.25,-0.24l0 -0.36 -0.12 0zm-0.12 0.31c-0.07,0 -0.12,-0.04 -0.12,-0.11 0,-0.06 0.05,-0.11 0.12,-0.11 0.06,0 0.11,0.05 0.11,0.11 0,0.07 -0.05,0.11 -0.11,0.11z"/>
   </g>
   <g>
    <path id="5" class="fil0 str0" d="M4.84 1.51c0.14,0 0.24,-0.09 0.24,-0.23 0,-0.13 -0.1,-0.22 -0.24,-0.22 -0.14,0 -0.24,0.09 -0.24,0.22 0,0.14 0.1,0.23 0.24,0.23zm0 -0.1c-0.06,0 -0.11,-0.05 -0.11,-0.13 0,-0.07 0.05,-0.12 0.11,-0.12 0.07,0 0.11,0.05 0.11,0.12 0,0.08 -0.04,0.13 -0.11,0.13z"/>
   </g>
   <polygon id="6" class="fil1" points="2.12,1.5 2.25,1.5 2.25,1.04 2.43,1.04 2.43,0.93 1.94,0.93 1.94,1.04 2.12,1.04 "/>
   <path id="7" class="fil1" d="M2.8 1.07l0 0.21c0,0.08 -0.04,0.12 -0.1,0.12 -0.06,0 -0.09,-0.03 -0.09,-0.11l0 -0.22 -0.13 0 0 0.24c0,0.14 0.08,0.2 0.19,0.2 0.05,0 0.1,-0.02 0.13,-0.06l0 0.05 0.13 0 0 -0.43 -0.13 0z"/>
   <polygon id="8" class="fil1" points="3.05,1.5 3.47,1.5 3.47,1.4 3.18,1.4 3.18,0.93 3.05,0.93 "/>
   <path id="9" class="fil1" d="M3.74 1.51c0.14,0 0.24,-0.09 0.24,-0.23 0,-0.13 -0.1,-0.22 -0.24,-0.22 -0.14,0 -0.24,0.09 -0.24,0.22 0,0.14 0.1,0.23 0.24,0.23zm0 -0.1c-0.06,0 -0.11,-0.05 -0.11,-0.13 0,-0.07 0.05,-0.12 0.11,-0.12 0.06,0 0.11,0.05 0.11,0.12 0,0.08 -0.05,0.13 -0.11,0.13z"/>
   <path id="10" class="fil1" d="M4.4 1.07l0 0.05c-0.04,-0.04 -0.09,-0.06 -0.15,-0.06 -0.12,0 -0.22,0.08 -0.22,0.21 0,0.13 0.1,0.21 0.22,0.21 0.06,0 0.11,-0.02 0.14,-0.05l0 0.02c0,0.08 -0.04,0.12 -0.13,0.12 -0.06,0 -0.12,-0.02 -0.15,-0.05l-0.05 0.09c0.05,0.04 0.13,0.06 0.21,0.06 0.16,0 0.25,-0.08 0.25,-0.24l0 -0.36 -0.12 0zm-0.12 0.31c-0.07,0 -0.12,-0.04 -0.12,-0.11 0,-0.06 0.05,-0.11 0.12,-0.11 0.06,0 0.11,0.05 0.11,0.11 0,0.07 -0.05,0.11 -0.11,0.11z"/>
   <path id="11" class="fil1" d="M4.84 1.51c0.14,0 0.24,-0.09 0.24,-0.23 0,-0.13 -0.1,-0.22 -0.24,-0.22 -0.14,0 -0.24,0.09 -0.24,0.22 0,0.14 0.1,0.23 0.24,0.23zm0 -0.1c-0.06,0 -0.11,-0.05 -0.11,-0.13 0,-0.07 0.05,-0.12 0.11,-0.12 0.07,0 0.11,0.05 0.11,0.12 0,0.08 -0.04,0.13 -0.11,0.13z"/>
   <g>
    <path class="fil2" d="M1.15 0.48c-0.31,0 -0.57,0.27 -0.57,0.59 0,0.32 0.26,0.59 0.57,0.59 0.32,0 0.58,-0.27 0.58,-0.59 0,-0.32 -0.26,-0.59 -0.58,-0.59zm0 1.19c-0.32,0 -0.59,-0.27 -0.59,-0.6 0,-0.33 0.27,-0.6 0.59,-0.6 0.33,0 0.59,0.27 0.59,0.6 0,0.33 -0.26,0.6 -0.59,0.6z"/>
    <path class="fil3" d="M1.15 0.48c-0.31,0 -0.57,0.27 -0.57,0.59 0,0.32 0.26,0.59 0.57,0.59 0.32,0 0.58,-0.27 0.58,-0.59 0,-0.32 -0.26,-0.59 -0.58,-0.59z"/>
    <g>
     <image x="0.69" y="0.54" width="0.91" height="0.49" xlink:href="logo-text_blanco_Images\logo-text_blanco_ImgID1.png"/>
    </g>
    <path class="fil2" d="M1.01 1.05c0,0 0,0 0,0 -0.04,-0.05 -0.13,-0.05 -0.13,-0.05l0 0c-0.01,0 -0.01,-0.01 -0.01,-0.01 0,0 0,0 0.01,0 0,0 0.09,0 0.14,0.05 0,0.01 0,0.01 -0.01,0.01 0,0 0,0 0,0z"/>
    <path class="fil2" d="M0.99 1.1c0,0 0,0 -0.01,0 -0.03,-0.04 -0.05,-0.1 -0.05,-0.1 0,0 0,0 0,-0.01 0.01,0 0.01,0.01 0.01,0.01 0,0 0.02,0.05 0.05,0.1 0,0 0,0 0,0 0,0 0,0 0,0z"/>
    <path class="fil2" d="M1.59 1.19c0,0 -0.01,0 -0.01,0 -0.08,-0.06 -0.11,-0.02 -0.11,-0.02 -0.01,0 -0.01,0 -0.01,0 0,0 0,-0.01 0,-0.01 0,0 0.03,-0.04 0.13,0.02 0,0 0,0 0,0.01 0,0 0,0 0,0z"/>
    <path class="fil2" d="M1.4 1.23c0,0 -0.01,0 -0.01,0 0,0 0,-0.01 0.01,-0.01 0,0 0.09,-0.01 0.12,-0.07 0,0 0.01,0 0.01,0 0,0 0,0 0,0.01 -0.03,0.06 -0.13,0.07 -0.13,0.07 0,0 0,0 0,0z"/>
    <path class="fil4" d="M1.21 1.46c0.1,0.01 0.13,-0.11 0.13,-0.12l0 0c0.02,-0.07 0.06,-0.11 0.06,-0.11 -0.24,0.02 -0.41,-0.13 -0.41,-0.13 0.07,0.37 0.21,0.36 0.22,0.36l0 0z"/>
    <path class="fil4" d="M1.3 1.3c0,0.07 -0.03,0.13 -0.08,0.16 0,0 -0.01,0 -0.01,0l0 0c-0.01,0 -0.14,0.01 -0.21,-0.32 0.01,0 0.02,-0.01 0.03,-0.01 0.04,0.03 0.14,0.08 0.26,0.1 0.01,0.02 0.01,0.05 0.01,0.07z"/>
    <path class="fil5" d="M1.3 1.3c0,0.07 -0.04,0.13 -0.09,0.16 0,0 0,0 0,0l0 0c-0.01,0 -0.14,0.01 -0.21,-0.31 0.01,-0.01 0.02,-0.02 0.03,-0.02 0.05,0.03 0.14,0.08 0.25,0.1 0.01,0.02 0.02,0.05 0.02,0.07z"/>
    <path class="fil6" d="M1.3 1.3c0,0.07 -0.04,0.13 -0.09,0.16 -0.03,0 -0.15,-0.01 -0.21,-0.31 0.01,-0.01 0.02,-0.01 0.03,-0.02 0.05,0.03 0.14,0.08 0.25,0.1 0.01,0.02 0.02,0.05 0.02,0.07z"/>
    <path class="fil7" d="M1.29 1.3c0,0.07 -0.03,0.13 -0.09,0.16 -0.03,0 -0.14,-0.03 -0.2,-0.31 0.01,-0.01 0.02,-0.01 0.03,-0.02 0.05,0.04 0.14,0.08 0.25,0.1 0.01,0.02 0.01,0.05 0.01,0.07z"/>
    <path class="fil8" d="M1.29 1.3c0,0.07 -0.04,0.13 -0.09,0.16 -0.04,0 -0.14,-0.04 -0.2,-0.31 0.01,0 0.02,-0.01 0.04,-0.02 0.04,0.04 0.13,0.08 0.23,0.1 0.01,0.02 0.02,0.05 0.02,0.07z"/>
    <path class="fil9" d="M1.29 1.3c0,0.07 -0.04,0.13 -0.1,0.16 -0.03,-0.01 -0.13,-0.05 -0.19,-0.3 0.01,-0.01 0.03,-0.02 0.04,-0.02 0.05,0.03 0.13,0.07 0.23,0.09 0.01,0.02 0.02,0.05 0.02,0.07z"/>
    <path class="fil10" d="M1.29 1.3c0,0.07 -0.04,0.13 -0.1,0.16 -0.04,-0.01 -0.13,-0.06 -0.19,-0.3 0.01,-0.01 0.03,-0.02 0.04,-0.02 0.05,0.03 0.13,0.07 0.23,0.08 0.01,0.03 0.02,0.06 0.02,0.08z"/>
    <path class="fil11" d="M1.28 1.3c0,0.07 -0.04,0.13 -0.09,0.16 -0.05,-0.01 -0.13,-0.06 -0.19,-0.3 0.01,-0.01 0.03,-0.01 0.04,-0.02 0.05,0.03 0.13,0.07 0.22,0.08 0.02,0.03 0.02,0.06 0.02,0.08z"/>
    <path class="fil12" d="M1.28 1.3c0,0.07 -0.04,0.13 -0.1,0.16 -0.04,-0.01 -0.12,-0.07 -0.18,-0.29 0.02,-0.01 0.03,-0.02 0.05,-0.03 0.04,0.03 0.12,0.07 0.21,0.08 0.01,0.03 0.02,0.05 0.02,0.08z"/>
    <path class="fil13" d="M1.28 1.3c0,0.07 -0.04,0.13 -0.1,0.16 -0.05,-0.02 -0.13,-0.08 -0.18,-0.29 0.02,-0.01 0.03,-0.02 0.05,-0.03 0.05,0.03 0.12,0.07 0.21,0.08 0.01,0.03 0.02,0.05 0.02,0.08z"/>
    <path class="fil14" d="M1.28 1.3c0,0.07 -0.05,0.13 -0.1,0.16 -0.05,-0.02 -0.13,-0.08 -0.18,-0.29 0.02,-0.01 0.03,-0.02 0.05,-0.03 0.05,0.03 0.12,0.07 0.2,0.08 0.02,0.03 0.03,0.05 0.03,0.08z"/>
    <path class="fil15" d="M1.27 1.3c0,0.07 -0.04,0.13 -0.1,0.16 -0.04,-0.02 -0.12,-0.08 -0.17,-0.29 0.02,-0.01 0.04,-0.02 0.06,-0.02 0.04,0.02 0.11,0.06 0.19,0.07 0.01,0.03 0.02,0.05 0.02,0.08z"/>
    <path class="fil16" d="M1.27 1.3c0,0.07 -0.04,0.13 -0.1,0.15 -0.05,-0.02 -0.12,-0.08 -0.16,-0.27 0.01,-0.02 0.03,-0.03 0.05,-0.03 0.04,0.03 0.11,0.06 0.19,0.07 0.01,0.03 0.02,0.05 0.02,0.08z"/>
    <path class="fil17" d="M1.27 1.3c0,0.07 -0.04,0.13 -0.1,0.15 -0.05,-0.02 -0.12,-0.08 -0.16,-0.27 0.01,-0.01 0.03,-0.02 0.05,-0.03 0.05,0.03 0.11,0.06 0.18,0.07 0.02,0.02 0.03,0.05 0.03,0.08z"/>
    <path class="fil18" d="M1.26 1.3c0,0.07 -0.04,0.13 -0.1,0.15 -0.04,-0.02 -0.11,-0.09 -0.15,-0.27 0.01,-0.01 0.03,-0.02 0.05,-0.03 0.05,0.03 0.11,0.06 0.18,0.07 0.02,0.02 0.02,0.05 0.02,0.08z"/>
    <path class="fil19" d="M1.26 1.3c0,0.07 -0.04,0.13 -0.1,0.15 -0.05,-0.03 -0.11,-0.09 -0.15,-0.26 0.01,-0.02 0.04,-0.03 0.06,-0.04 0.04,0.03 0.1,0.05 0.17,0.07 0.01,0.02 0.02,0.05 0.02,0.08z"/>
    <path class="fil20" d="M1.26 1.3c0,0.07 -0.04,0.13 -0.1,0.15 -0.05,-0.03 -0.11,-0.09 -0.15,-0.26 0.02,-0.02 0.04,-0.03 0.06,-0.03 0.04,0.02 0.1,0.04 0.16,0.06 0.02,0.02 0.03,0.05 0.03,0.08z"/>
    <path class="fil21" d="M1.26 1.3c0,0.07 -0.05,0.13 -0.11,0.15 -0.04,-0.03 -0.1,-0.1 -0.14,-0.26 0.02,-0.02 0.04,-0.03 0.06,-0.03 0.04,0.02 0.1,0.04 0.16,0.06 0.02,0.02 0.03,0.05 0.03,0.08z"/>
    <path class="fil22" d="M1.25 1.3c0,0.07 -0.04,0.13 -0.1,0.14 -0.04,-0.02 -0.1,-0.09 -0.14,-0.25 0.02,-0.01 0.04,-0.03 0.07,-0.03 0.04,0.02 0.09,0.04 0.15,0.06 0.01,0.02 0.02,0.05 0.02,0.08z"/>
    <path class="fil23" d="M1.25 1.3c0,0.07 -0.04,0.12 -0.1,0.14 -0.04,-0.03 -0.1,-0.09 -0.14,-0.24 0.02,-0.02 0.04,-0.03 0.07,-0.04 0.04,0.02 0.09,0.04 0.14,0.06 0.02,0.02 0.03,0.05 0.03,0.08z"/>
    <path class="fil24" d="M1.25 1.3c0,0.07 -0.05,0.12 -0.11,0.14 -0.04,-0.03 -0.09,-0.09 -0.13,-0.24 0.02,-0.02 0.05,-0.03 0.08,-0.04 0.03,0.02 0.08,0.04 0.13,0.05 0.02,0.03 0.03,0.06 0.03,0.09z"/>
    <path class="fil25" d="M1.25 1.3c0,0.07 -0.05,0.12 -0.11,0.14 -0.04,-0.03 -0.09,-0.1 -0.13,-0.24 0.02,-0.02 0.05,-0.03 0.08,-0.03 0.03,0.01 0.08,0.03 0.12,0.04 0.02,0.03 0.04,0.06 0.04,0.09z"/>
    <path class="fil26" d="M1.24 1.3c0,0.07 -0.04,0.12 -0.1,0.14 -0.04,-0.03 -0.09,-0.1 -0.13,-0.23 0.02,-0.03 0.05,-0.04 0.08,-0.04 0.04,0.01 0.07,0.03 0.12,0.04 0.02,0.03 0.03,0.06 0.03,0.09z"/>
    <path class="fil27" d="M1.24 1.3c0,0.07 -0.04,0.12 -0.1,0.13 -0.04,-0.03 -0.09,-0.09 -0.13,-0.22 0.03,-0.02 0.05,-0.04 0.09,-0.04 0.03,0.02 0.06,0.03 0.1,0.04 0.03,0.03 0.04,0.06 0.04,0.09z"/>
    <path class="fil28" d="M1.24 1.3c0,0.07 -0.05,0.12 -0.11,0.13 -0.03,-0.03 -0.08,-0.09 -0.12,-0.22 0.03,-0.02 0.06,-0.04 0.09,-0.04 0.03,0.02 0.06,0.03 0.1,0.04 0.02,0.02 0.04,0.06 0.04,0.09z"/>
    <path class="fil29" d="M1.24 1.3c0,0.07 -0.05,0.12 -0.11,0.13 -0.04,-0.03 -0.08,-0.09 -0.11,-0.22 0.02,-0.02 0.05,-0.04 0.09,-0.04l0 0c0.02,0.02 0.05,0.03 0.08,0.04 0.03,0.02 0.05,0.06 0.05,0.09z"/>
    <path class="fil30" d="M1.23 1.3c0,0.07 -0.04,0.12 -0.1,0.13 -0.04,-0.03 -0.08,-0.1 -0.11,-0.21 0.02,-0.03 0.05,-0.04 0.09,-0.04 0,0 0,0 0,0 0.03,0.01 0.05,0.02 0.08,0.03 0.03,0.02 0.04,0.05 0.04,0.09z"/>
    <path class="fil31" d="M1.23 1.3c0,0.07 -0.04,0.12 -0.1,0.13 -0.04,-0.04 -0.08,-0.1 -0.11,-0.21 0.02,-0.02 0.05,-0.04 0.09,-0.04 0,0 0.01,0 0.01,0 0.02,0.01 0.04,0.02 0.06,0.02 0.03,0.03 0.05,0.06 0.05,0.1z"/>
    <path class="fil32" d="M1.23 1.3c0,0.06 -0.05,0.11 -0.11,0.12 -0.03,-0.03 -0.07,-0.09 -0.1,-0.2 0.02,-0.02 0.05,-0.04 0.09,-0.04 0,0 0.01,0 0.02,0 0.01,0.01 0.03,0.02 0.04,0.02 0.04,0.02 0.06,0.06 0.06,0.1z"/>
    <path class="fil33" d="M1.23 1.3c0,0.06 -0.05,0.11 -0.11,0.12 -0.03,-0.03 -0.07,-0.09 -0.1,-0.19 0.02,-0.03 0.05,-0.04 0.09,-0.04 0.06,0 0.12,0.05 0.12,0.11z"/>
    <path class="fil34" d="M1.22 1.3c0,0.06 -0.04,0.11 -0.1,0.12 -0.03,-0.03 -0.07,-0.09 -0.1,-0.19 0.02,-0.03 0.05,-0.04 0.09,-0.04 0.06,0 0.11,0.05 0.11,0.11z"/>
    <path class="fil34" d="M1.22 1.3c0,0.06 -0.05,0.11 -0.1,0.12 -0.04,-0.04 -0.07,-0.09 -0.1,-0.19 0.02,-0.02 0.05,-0.04 0.09,-0.04 0.06,0 0.11,0.05 0.11,0.11z"/>
    <path class="fil35" d="M1.22 1.3c0,0.06 -0.05,0.11 -0.11,0.11 -0.03,-0.03 -0.06,-0.08 -0.09,-0.18 0.02,-0.02 0.05,-0.04 0.09,-0.04 0.06,0 0.11,0.05 0.11,0.11z"/>
    <path class="fil36" d="M1.21 1.3c0,0.06 -0.04,0.11 -0.1,0.11 -0.03,-0.03 -0.06,-0.09 -0.09,-0.17 0.02,-0.03 0.05,-0.04 0.09,-0.04 0.06,0 0.1,0.04 0.1,0.1z"/>
    <path class="fil36" d="M1.21 1.3c0,0.06 -0.04,0.11 -0.1,0.11 -0.03,-0.03 -0.06,-0.09 -0.09,-0.17 0.02,-0.02 0.05,-0.04 0.09,-0.04 0.06,0 0.1,0.05 0.1,0.1z"/>
    <path class="fil37" d="M1.21 1.3c0,0.06 -0.05,0.11 -0.1,0.11l0 0c-0.03,-0.04 -0.06,-0.09 -0.09,-0.17 0.02,-0.02 0.05,-0.04 0.09,-0.04 0.05,0 0.1,0.05 0.1,0.1z"/>
    <path class="fil38" d="M1.21 1.3c0,0.06 -0.05,0.1 -0.1,0.1 0,0 0,0 0,0 -0.03,-0.03 -0.06,-0.08 -0.08,-0.15 0.01,-0.03 0.04,-0.05 0.08,-0.05 0.05,0 0.1,0.05 0.1,0.1z"/>
    <path class="fil38" d="M1.2 1.3c0,0.06 -0.04,0.1 -0.09,0.1 0,0 -0.01,0 -0.01,0 -0.02,-0.03 -0.05,-0.08 -0.07,-0.15 0.01,-0.03 0.04,-0.04 0.08,-0.04 0.05,0 0.09,0.04 0.09,0.09z"/>
    <path class="fil38" d="M1.2 1.3c0,0.06 -0.04,0.1 -0.09,0.1 0,0 -0.01,0 -0.01,0 -0.02,-0.03 -0.05,-0.08 -0.07,-0.15 0.01,-0.02 0.04,-0.04 0.08,-0.04 0.05,0 0.09,0.04 0.09,0.09z"/>
    <path class="fil39" d="M1.2 1.3c0,0.05 -0.04,0.1 -0.09,0.1 -0.01,0 -0.01,0 -0.01,-0.01 -0.03,-0.03 -0.05,-0.07 -0.07,-0.13 0.01,-0.03 0.04,-0.05 0.08,-0.05 0.05,0 0.09,0.04 0.09,0.09z"/>
    <path class="fil39" d="M1.2 1.3c0,0.05 -0.04,0.09 -0.09,0.09 -0.01,0 -0.01,0 -0.01,0 -0.03,-0.03 -0.05,-0.07 -0.07,-0.13 0.01,-0.03 0.04,-0.05 0.08,-0.05 0.05,0 0.09,0.04 0.09,0.09z"/>
    <path class="fil40" d="M1.19 1.3c0,0.05 -0.03,0.09 -0.08,0.09 -0.01,0 -0.01,0 -0.02,0 -0.02,-0.03 -0.04,-0.07 -0.06,-0.13 0.02,-0.02 0.04,-0.04 0.08,-0.04 0.05,0 0.08,0.04 0.08,0.08z"/>
    <path class="fil40" d="M1.19 1.3c0,0.05 -0.04,0.09 -0.08,0.09 -0.01,0 -0.01,0 -0.02,0 -0.02,-0.03 -0.04,-0.07 -0.06,-0.12 0.02,-0.03 0.04,-0.05 0.08,-0.05 0.04,0 0.08,0.04 0.08,0.08z"/>
    <path class="fil40" d="M1.19 1.3c0,0.05 -0.04,0.08 -0.08,0.08 -0.01,0 -0.01,0 -0.02,0 -0.02,-0.02 -0.04,-0.06 -0.06,-0.11 0.02,-0.03 0.04,-0.05 0.08,-0.05 0.04,0 0.08,0.04 0.08,0.08z"/>
    <path class="fil40" d="M1.19 1.3c0,0.05 -0.04,0.08 -0.08,0.08 -0.01,0 -0.02,0 -0.02,0 -0.02,-0.03 -0.04,-0.06 -0.06,-0.11 0.02,-0.02 0.04,-0.05 0.08,-0.05 0.04,0 0.08,0.04 0.08,0.08z"/>
    <path class="fil41" d="M1.18 1.3c0,0.05 -0.03,0.08 -0.07,0.08 -0.01,0 -0.02,0 -0.03,0 -0.01,-0.03 -0.03,-0.06 -0.04,-0.1 0.01,-0.03 0.03,-0.05 0.07,-0.05 0.04,0 0.07,0.03 0.07,0.07z"/>
    <path class="fil41" d="M1.18 1.3c0,0.04 -0.03,0.08 -0.07,0.08 -0.01,0 -0.02,0 -0.03,-0.01 -0.01,-0.02 -0.03,-0.05 -0.04,-0.09 0.01,-0.03 0.03,-0.05 0.07,-0.05 0.04,0 0.07,0.03 0.07,0.07z"/>
    <path class="fil41" d="M1.18 1.3c0,0.04 -0.03,0.07 -0.07,0.07 -0.01,0 -0.02,0 -0.03,0 -0.01,-0.02 -0.03,-0.05 -0.04,-0.08 0.01,-0.03 0.03,-0.06 0.07,-0.06 0.04,0 0.07,0.03 0.07,0.07z"/>
    <path class="fil41" d="M1.18 1.3c0,0.04 -0.03,0.07 -0.07,0.07 -0.01,0 -0.02,0 -0.03,-0.01 -0.01,-0.02 -0.03,-0.04 -0.04,-0.07 0.01,-0.03 0.03,-0.05 0.07,-0.05 0.04,0 0.07,0.03 0.07,0.06z"/>
    <path class="fil41" d="M1.17 1.3c0,0.04 -0.03,0.07 -0.06,0.07 -0.01,0 -0.03,0 -0.04,-0.01 -0.01,-0.02 -0.02,-0.04 -0.03,-0.07 0.01,-0.03 0.03,-0.05 0.07,-0.05 0.03,0 0.06,0.03 0.06,0.06z"/>
    <path class="fil41" d="M1.17 1.3c0,0.04 -0.03,0.07 -0.06,0.07 -0.02,0 -0.03,-0.01 -0.04,-0.01 -0.01,-0.02 -0.02,-0.04 -0.03,-0.06 0.01,-0.03 0.03,-0.06 0.07,-0.06 0.03,0 0.06,0.03 0.06,0.06z"/>
    <path class="fil41" d="M1.17 1.3c0,0.04 -0.03,0.06 -0.06,0.06 -0.02,0 -0.03,0 -0.04,-0.01 -0.01,-0.01 -0.02,-0.03 -0.02,-0.04 0,-0.01 0,-0.01 0,-0.01 0,-0.03 0.02,-0.06 0.06,-0.06 0.03,0 0.06,0.03 0.06,0.06z"/>
    <path class="fil42" d="M1.17 1.3c0,0.04 -0.03,0.06 -0.06,0.06 -0.02,0 -0.03,-0.01 -0.05,-0.02 0,-0.01 0,-0.02 -0.01,-0.03 0,0 0,0 0,-0.01 0,-0.03 0.03,-0.05 0.06,-0.05 0.03,0 0.06,0.02 0.06,0.05z"/>
    <path class="fil42" d="M1.16 1.3c0,0.03 -0.02,0.06 -0.05,0.06 -0.03,0 -0.06,-0.03 -0.06,-0.06 0,-0.03 0.03,-0.05 0.06,-0.05 0.03,0 0.05,0.02 0.05,0.05z"/>
    <path class="fil42" d="M1.16 1.3c0,0.03 -0.02,0.06 -0.05,0.06 -0.03,0 -0.05,-0.03 -0.05,-0.06 0,-0.03 0.02,-0.05 0.05,-0.05 0.03,0 0.05,0.02 0.05,0.05z"/>
    <path class="fil42" d="M1.16 1.3c0,0.03 -0.03,0.05 -0.05,0.05 -0.03,0 -0.05,-0.02 -0.05,-0.05 0,-0.02 0.02,-0.05 0.05,-0.05 0.02,0 0.05,0.03 0.05,0.05z"/>
    <path class="fil42" d="M1.15 1.3c0,0.03 -0.02,0.05 -0.04,0.05 -0.03,0 -0.05,-0.02 -0.05,-0.05 0,-0.02 0.02,-0.04 0.05,-0.04 0.02,0 0.04,0.02 0.04,0.04z"/>
    <path class="fil42" d="M1.15 1.3c0,0.03 -0.02,0.05 -0.04,0.05 -0.03,0 -0.05,-0.02 -0.05,-0.05 0,-0.02 0.02,-0.04 0.05,-0.04 0.02,0 0.04,0.02 0.04,0.04z"/>
    <path class="fil42" d="M1.15 1.3c0,0.03 -0.02,0.05 -0.04,0.05 -0.03,0 -0.04,-0.02 -0.04,-0.05 0,-0.02 0.01,-0.04 0.04,-0.04 0.02,0 0.04,0.02 0.04,0.04z"/>
    <path class="fil42" d="M1.15 1.3c0,0.03 -0.02,0.04 -0.04,0.04 -0.02,0 -0.04,-0.01 -0.04,-0.04 0,-0.02 0.02,-0.04 0.04,-0.04 0.02,0 0.04,0.02 0.04,0.04z"/>
    <path class="fil42" d="M1.14 1.3c0,0.02 -0.01,0.04 -0.03,0.04 -0.02,0 -0.04,-0.02 -0.04,-0.04 0,-0.02 0.02,-0.03 0.04,-0.03 0.02,0 0.03,0.01 0.03,0.03z"/>
    <path class="fil42" d="M1.14 1.3c0,0.02 -0.01,0.04 -0.03,0.04 -0.02,0 -0.04,-0.02 -0.04,-0.04 0,-0.02 0.02,-0.03 0.04,-0.03 0.02,0 0.03,0.01 0.03,0.03z"/>
    <path class="fil42" d="M1.14 1.3c0,0.02 -0.02,0.03 -0.03,0.03 -0.02,0 -0.03,-0.01 -0.03,-0.03 0,-0.01 0.01,-0.03 0.03,-0.03 0.01,0 0.03,0.02 0.03,0.03z"/>
    <path class="fil42" d="M1.14 1.3c0,0.02 -0.02,0.03 -0.03,0.03 -0.02,0 -0.03,-0.01 -0.03,-0.03 0,-0.01 0.01,-0.03 0.03,-0.03 0.01,0 0.03,0.02 0.03,0.03z"/>
    <path class="fil42" d="M1.13 1.3c0,0.02 -0.01,0.03 -0.02,0.03 -0.02,0 -0.03,-0.01 -0.03,-0.03 0,-0.01 0.01,-0.02 0.03,-0.02 0.01,0 0.02,0.01 0.02,0.02z"/>
    <path class="fil42" d="M1.13 1.3c0,0.02 -0.01,0.03 -0.02,0.03 -0.02,0 -0.03,-0.01 -0.03,-0.03 0,-0.01 0.01,-0.02 0.03,-0.02 0.01,0 0.02,0.01 0.02,0.02z"/>
    <path class="fil42" d="M1.13 1.3c0,0.02 -0.01,0.02 -0.02,0.02 -0.01,0 -0.02,0 -0.02,-0.02 0,-0.01 0.01,-0.02 0.02,-0.02 0.01,0 0.02,0.01 0.02,0.02z"/>
    <path class="fil42" d="M1.13 1.3c0,0.01 -0.01,0.02 -0.02,0.02 -0.01,0 -0.02,-0.01 -0.02,-0.02 0,-0.01 0.01,-0.01 0.02,-0.01 0.01,0 0.02,0 0.02,0.01z"/>
    <path class="fil42" d="M1.12 1.3c0,0.01 0,0.02 -0.01,0.02 -0.01,0 -0.02,-0.01 -0.02,-0.02 0,-0.01 0.01,-0.01 0.02,-0.01 0.01,0 0.01,0 0.01,0.01z"/>
    <path class="fil42" d="M1.12 1.3c0,0.01 -0.01,0.02 -0.01,0.02 -0.01,0 -0.02,-0.01 -0.02,-0.02 0,0 0.01,-0.01 0.02,-0.01 0,0 0.01,0.01 0.01,0.01z"/>
    <path class="fil42" d="M1.12 1.3c0,0.01 -0.01,0.01 -0.01,0.01 -0.01,0 -0.01,0 -0.01,-0.01 0,0 0,-0.01 0.01,-0.01 0,0 0.01,0.01 0.01,0.01z"/>
    <path class="fil42" d="M1.12 1.3c0,0.01 -0.01,0.01 -0.01,0.01 -0.01,0 -0.01,0 -0.01,-0.01 0,0 0,0 0.01,0 0,0 0.01,0 0.01,0z"/>
    <path class="fil42" d="M1.11 1.3c0,0.01 0,0.01 0,0.01 -0.01,0 -0.01,0 -0.01,-0.01 0,0 0,0 0.01,0 0,0 0,0 0,0z"/>
    <path class="fil42" d="M1.11 1.3c0,0 0,0.01 0,0.01 0,0 -0.01,-0.01 -0.01,-0.01 0,0 0.01,0 0.01,0 0,0 0,0 0,0z"/>
    <path class="fil43" d="M1.21 1.46c0,0 0,0 0,0 0.1,0 0.13,-0.12 0.13,-0.12 0.01,-0.05 0.03,-0.09 0.05,-0.11 -0.2,0.02 -0.35,-0.08 -0.39,-0.12 0.06,0.33 0.18,0.35 0.21,0.35 0,0 0,0 0,0l0 0zm0.01 0.01c0,0 -0.01,0 -0.01,0l0 0c-0.02,0 -0.05,-0.01 -0.09,-0.05 -0.06,-0.06 -0.11,-0.17 -0.14,-0.32 0,0 0,0 0.01,-0.01 0,0 0,0 0,0 0,0.01 0.17,0.16 0.41,0.13 0,0 0,0 0,0.01 0,0 0,0 0,0 0,0 -0.03,0.04 -0.05,0.11 0,0.01 -0.03,0.13 -0.13,0.13z"/>
    <path class="fil44" d="M1.04 1.3c0.03,0 0.07,0.01 0.09,0.06 0.01,0 0.11,0 0.1,0.1 -0.01,0 -0.01,0 -0.02,0l0 0c-0.01,0 -0.09,0.01 -0.17,-0.16z"/>
    <path class="fil45" d="M1.22 1.46c0,-0.03 0,-0.05 -0.02,-0.07 -0.02,-0.02 -0.06,-0.03 -0.07,-0.03 0,0 0,0 0,0 -0.02,-0.05 -0.06,-0.05 -0.08,-0.06 0,0 -0.01,0 -0.01,-0.01 0.02,0 0.07,0.01 0.1,0.06 0.01,0 0.04,0.01 0.07,0.03 0.02,0.02 0.03,0.05 0.02,0.08 0,0 0,0 -0.01,0z"/>
    <path class="fil46" d="M1.21 1.31c0.02,0 0.11,0.03 0.13,-0.08 -0.14,0 -0.25,-0.06 -0.31,-0.1 0,0.04 0.03,0.12 0.18,0.18l0 0z"/>
    <path class="fil45" d="M1.15 1.41c-0.01,0 -0.01,0 -0.01,-0.01 0,-0.01 -0.01,-0.04 -0.01,-0.04 0,0 0,-0.01 0,-0.01 0,0 0.01,0 0.01,0 0,0.01 0.01,0.04 0.01,0.05 0,0.01 0,0.01 0,0.01 0,0 0,0 0,0z"/>
    <path class="fil2" d="M1.21 1.46l0 0c0.1,0 0.13,-0.12 0.13,-0.12 0.01,-0.05 0.03,-0.09 0.05,-0.11 -0.2,0.02 -0.35,-0.08 -0.39,-0.12 0.06,0.33 0.18,0.35 0.21,0.35 0,0 0,0 0,0l0 0zm0.01 0.01c0,0 -0.01,0 -0.01,0l0 0c-0.02,0 -0.05,-0.01 -0.09,-0.05 -0.06,-0.06 -0.11,-0.17 -0.14,-0.32l0 -0.02 0.01 0.01c0,0.01 0.17,0.16 0.41,0.13l0.01 0 -0.01 0.01c0,0 -0.03,0.04 -0.05,0.11 0,0.01 -0.03,0.13 -0.13,0.13z"/>
    <path class="fil47" d="M1.16 1.37c0,0.01 0,0.02 0.01,0.03l0 0c0.01,0.01 0.03,0.02 0.03,0.02l0 0c0,-0.01 0,-0.02 -0.01,-0.03l0 0c-0.01,-0.01 -0.02,-0.02 -0.02,-0.02l0 0c-0.01,0 -0.01,0 -0.01,0l0 0z"/>
    <path class="fil48" d="M1.08 1.32l0 0c0,0 0,0 0,0l0 0c-0.01,0.01 0,0.02 0.01,0.04l0 0c0.01,0.01 0.03,0.02 0.03,0.01l0 0c0.01,0 0,-0.01 -0.01,-0.03l0 0c-0.01,-0.01 -0.02,-0.02 -0.03,-0.02z"/>
    <path class="fil49" d="M1.3 1.48c0,0 0,0.01 -0.01,0.01 0,0.01 -0.01,0.02 -0.03,0.02 -0.01,0.01 -0.02,0.01 -0.04,0.02 -0.01,0 -0.03,0 -0.04,-0.01 -0.02,0 -0.03,0 -0.04,-0.01 -0.02,-0.01 -0.03,-0.02 -0.04,-0.02 -0.02,-0.02 -0.03,-0.04 -0.02,-0.04 0,0 0.01,0.01 0.04,0.02 0.01,0 0.02,0.01 0.03,0.01 0.01,0.01 0.02,0.01 0.03,0.01 0.01,0.01 0.03,0.01 0.04,0.01 0.01,0 0.02,-0.01 0.04,-0.01 0.01,0 0.02,-0.01 0.03,-0.01 0,0 0.01,0 0.01,0z"/>
    <path class="fil49" d="M1.25 0.87c0,0.1 -0.06,0.18 -0.13,0.19 -0.03,-0.09 -0.09,-0.14 -0.15,-0.16 0,-0.01 0,-0.02 0,-0.03 0,-0.11 0.06,-0.2 0.14,-0.2 0.07,0 0.14,0.09 0.14,0.2z"/>
    <path class="fil50" d="M1.23 0.87c0,0.1 -0.05,0.17 -0.12,0.17l0 0c-0.02,-0.07 -0.07,-0.11 -0.11,-0.13 -0.01,-0.01 -0.01,-0.02 -0.01,-0.04 0,-0.09 0.06,-0.17 0.12,-0.17 0.07,0 0.12,0.08 0.12,0.17z"/>
    <path class="fil51" d="M1.11 1.04l0 0c0.07,0 0.12,-0.08 0.12,-0.16l0 0c0,-0.09 -0.05,-0.16 -0.12,-0.16l0 0c-0.06,0 -0.11,0.07 -0.11,0.16 0,0.01 0,0.02 0.01,0.04l0 0c0.04,0.02 0.08,0.06 0.1,0.11l0 0c0,0 0,0.01 0,0.01z"/>
    <path class="fil52" d="M1.17 0.88c0,0.05 -0.03,0.09 -0.07,0.09 -0.03,0 -0.06,-0.04 -0.06,-0.09 0,-0.04 0.03,-0.08 0.06,-0.08 0.04,0 0.07,0.04 0.07,0.08z"/>
    <path class="fil53" d="M1.05 0.88c0,0.04 0.02,0.08 0.05,0.08 0.03,0 0.06,-0.04 0.06,-0.08l0 0c0,-0.03 -0.03,-0.07 -0.06,-0.07l0 0c-0.03,0 -0.05,0.04 -0.05,0.07z"/>
    <path class="fil52" d="M1.14 0.89c0,0.02 -0.02,0.04 -0.04,0.04 -0.02,0 -0.03,-0.02 -0.03,-0.04 0,-0.03 0.01,-0.05 0.03,-0.05 0.02,0 0.04,0.02 0.04,0.05z"/>
    <path class="fil54" d="M1.1 0.85c0,0.01 -0.01,0.02 -0.02,0.02 -0.01,0 -0.02,-0.01 -0.02,-0.02 0,-0.01 0.01,-0.02 0.02,-0.02 0.01,0 0.02,0.01 0.02,0.02z"/>
    <path class="fil54" d="M1.12 0.93c0,0.01 0,0.01 -0.01,0.01 -0.01,0 -0.02,0 -0.02,-0.01 0,-0.01 0.01,-0.01 0.02,-0.01 0.01,0 0.01,0 0.01,0.01z"/>
    <path class="fil49" d="M1.55 0.88c0.02,0.07 0.01,0.13 -0.01,0.17 -0.04,0 -0.07,0.02 -0.1,0.04 -0.05,-0.01 -0.1,-0.06 -0.12,-0.12 -0.04,-0.09 -0.01,-0.18 0.05,-0.21 0.06,-0.02 0.14,0.03 0.18,0.12z"/>
    <path class="fil50" d="M1.54 0.9c0.02,0.05 0.02,0.11 -0.01,0.15 -0.03,0 -0.06,0.02 -0.09,0.04 -0.05,-0.01 -0.09,-0.05 -0.11,-0.11 -0.03,-0.09 -0.01,-0.17 0.05,-0.19 0.06,-0.02 0.13,0.03 0.16,0.11z"/>
    <path class="fil55" d="M1.38 0.81c-0.05,0.02 -0.07,0.1 -0.05,0.17l0 0c0.03,0.06 0.07,0.1 0.12,0.1 0.02,-0.01 0.04,-0.02 0.07,-0.03l0 0c0.02,-0.03 0.03,-0.09 0.01,-0.14l0 0c-0.02,-0.06 -0.07,-0.11 -0.12,-0.11l0 0c-0.01,0 -0.02,0.01 -0.03,0.01l0 0z"/>
    <path class="fil52" d="M1.45 0.93c0.02,0.04 0,0.08 -0.03,0.09 -0.03,0.01 -0.07,-0.02 -0.08,-0.06 -0.01,-0.04 0,-0.08 0.03,-0.09 0.03,-0.01 0.07,0.01 0.08,0.06z"/>
    <path class="fil56" d="M1.38 0.88c-0.03,0.01 -0.04,0.04 -0.03,0.08l0 0c0.01,0.04 0.04,0.06 0.07,0.05l0 0c0.02,-0.01 0.04,-0.04 0.02,-0.08l0 0c0,-0.03 -0.03,-0.05 -0.05,-0.05l0 0c-0.01,0 -0.01,0 -0.01,0l0 0z"/>
    <path class="fil52" d="M1.43 0.94c0.01,0.02 0,0.05 -0.02,0.05 -0.02,0.01 -0.04,-0.01 -0.05,-0.03 -0.01,-0.03 0,-0.05 0.02,-0.06 0.02,0 0.04,0.01 0.05,0.04z"/>
    <path class="fil54" d="M1.39 0.91c0,0.02 -0.01,0.03 -0.03,0.03 -0.01,0 -0.02,-0.01 -0.02,-0.03 0,-0.01 0.01,-0.02 0.02,-0.02 0.02,0 0.03,0.01 0.03,0.02z"/>
    <path class="fil54" d="M1.43 0.97c0,0.01 -0.01,0.02 -0.02,0.02 0,0 -0.01,-0.01 -0.01,-0.02 0,0 0.01,-0.01 0.01,-0.01 0.01,0 0.02,0.01 0.02,0.01z"/>
    <path class="fil2" d="M1.13 1.11c0,0 -0.01,0 -0.01,0 -0.01,-0.09 -0.05,-0.16 -0.13,-0.2 -0.06,-0.03 -0.11,-0.03 -0.11,-0.03 -0.01,0 -0.01,0 -0.01,0 0,-0.01 0,-0.01 0.01,-0.01 0,0 0.06,0 0.11,0.03 0.06,0.03 0.13,0.09 0.14,0.21 0,0 0,0 0,0 0,0 0,0 0,0z"/>
    <path class="fil2" d="M1.38 1.14c0,0 0,0 0,0 0,0 0,-0.01 0,-0.01 0,0 0.14,-0.14 0.22,-0.07 0,0.01 0,0.01 0,0.01 0,0 0,0 -0.01,0 -0.07,-0.07 -0.2,0.07 -0.2,0.07 0,0 -0.01,0 -0.01,0z"/>
    <path class="fil49" d="M1.03 0.6c0,0 0.11,-0.07 0.17,-0.05 -0.01,-0.02 -0.03,-0.03 -0.03,-0.03l-0.03 -0.01 -0.04 0.03 -0.07 0.06z"/>
    <path class="fil57" d="M1.12 0.49c0,0 -0.01,0 -0.01,0l0 0c-0.01,0 -0.01,0.01 -0.01,0.01l0 0c-0.01,0 -0.03,0.02 -0.03,0.03l0 0 -0.01 0.01c0,0 -0.01,0 -0.01,0l0 0c0,0.01 -0.01,0.02 -0.01,0.02l0 0c-0.01,0.03 -0.02,0.04 -0.01,0.05l0 0c0,0 0.02,-0.01 0.04,-0.03l0 0c0,0 0,-0.01 0.01,-0.01l0 0c0,0 0,-0.01 0.01,-0.01l0 0 0 0c0.01,-0.01 0.02,-0.02 0.03,-0.02l0 0c0.01,-0.01 0.02,-0.01 0.03,-0.01l0 0c0,0 0,0 0.01,0l0 0c0,0 0.01,0 0.01,0l0 0c0.01,0.01 0.01,0.01 0.02,0.02l0 0c0,0 0.01,0.01 0.01,0.01l0 0c0,0 0.01,-0.01 0,-0.02l0 0c0,-0.01 0,-0.02 -0.01,-0.03l0 0c0,-0.01 -0.01,-0.01 -0.02,-0.02l0 0c0,0 -0.01,-0.01 -0.02,-0.01l0 0c0,0 -0.01,0 -0.01,0l0 0c-0.01,0 -0.01,0.01 -0.02,0.01l0 0z"/>
    <path class="fil49" d="M1.41 0.64c0,0 0.08,0.03 0.1,0.09 0,-0.03 0,-0.05 0,-0.05l-0.01 -0.04 -0.04 -0.03 -0.03 0.01 -0.02 0.02z"/>
    <path class="fil58" d="M1.44 0.6c-0.01,0 -0.01,0.01 -0.02,0.01l0 0c0,0 -0.01,0.01 -0.01,0.01l0 0c0,0.01 0,0.01 0,0.01l0 0c-0.01,0.01 -0.01,0.02 0,0.02l0 0c0,0 0,0 0.01,0l0 0c0,-0.01 0.01,-0.01 0.02,-0.01l0 0c0,-0.01 0.01,-0.01 0.01,-0.01l0 0c0,0 0.01,0 0.01,0.01l0 0c0,0 0,0 0,0l0 0c0,0 0,0 0.01,0l0 0c0,0.01 0,0.01 0,0.01l0 0c0,0 0.01,0.01 0.01,0.02l0 0c0.01,0.01 0.01,0.02 0.02,0.03l0 0c0.01,0.02 0.02,0.04 0.02,0.03l0 0c0.01,0 0.01,-0.01 0.01,-0.04l0 0c0,-0.02 -0.01,-0.05 -0.02,-0.07l0 0c-0.01,0 -0.01,0 -0.01,-0.01l0 0c0,0 -0.01,0 -0.01,0l0 0c-0.01,-0.01 -0.01,-0.01 -0.02,-0.01l0 0c-0.01,0 -0.01,-0.01 -0.01,-0.01l0 0c-0.01,0 -0.01,0.01 -0.02,0.01l0 0z"/>
    <path class="fil2" d="M0.2 1.15c0.16,0.09 0.28,0.11 0.35,0.07 0.06,-0.04 0.06,-0.11 0.06,-0.11l0 -0.01 0.01 0c0.08,0 0.14,-0.03 0.17,-0.07 0.04,-0.06 0.01,-0.14 0,-0.16l0 -0.01 0.01 0c0.05,-0.03 0.08,-0.08 0.08,-0.13 0.01,-0.12 -0.09,-0.24 -0.11,-0.25l-0.01 -0.01 0.01 0c0.14,-0.07 0.16,-0.17 0.16,-0.21l0 0c0.02,-0.08 -0.03,-0.17 -0.1,-0.22 -0.06,-0.04 -0.12,-0.04 -0.18,0 -0.02,0.02 -0.06,0.06 -0.06,0.1 0,0.12 -0.06,0.2 -0.06,0.2l0 0.01 -0.01 0c-0.29,-0.07 -0.45,0.2 -0.45,0.2 -0.11,0.26 -0.06,0.47 0.12,0.6 0,0 0,0 0.01,0zm0.26 0.1c-0.07,0 -0.16,-0.03 -0.27,-0.09l0 0c0,0 -0.01,0 -0.01,-0.01 -0.02,-0.01 -0.1,-0.06 -0.14,-0.16 -0.06,-0.12 -0.05,-0.27 0.02,-0.44 0,-0.01 0.04,-0.08 0.12,-0.14 0.07,-0.05 0.19,-0.11 0.34,-0.08 0.01,-0.01 0.06,-0.09 0.06,-0.19 0,-0.04 0.04,-0.08 0.07,-0.1 0.05,-0.05 0.13,-0.05 0.19,-0.01 0.07,0.05 0.12,0.15 0.1,0.23l0 0c0,0.05 -0.02,0.15 -0.16,0.22 0.03,0.02 0.12,0.14 0.11,0.25 0,0.05 -0.03,0.1 -0.09,0.14 0.01,0.02 0.04,0.1 0,0.16 -0.03,0.05 -0.09,0.08 -0.17,0.08 -0.01,0.02 -0.02,0.08 -0.08,0.12 -0.02,0.01 -0.05,0.02 -0.09,0.02z"/>
    <path class="fil3" d="M0.2 1.15c0.16,0.09 0.28,0.11 0.35,0.07 0.06,-0.04 0.06,-0.11 0.06,-0.11l0 -0.01 0.01 0c0.08,0 0.14,-0.03 0.17,-0.07 0.04,-0.06 0.01,-0.14 0,-0.16l0 -0.01 0.01 0c0.05,-0.03 0.08,-0.08 0.08,-0.13 0.01,-0.12 -0.09,-0.24 -0.11,-0.25l-0.01 -0.01 0.01 0c0.14,-0.07 0.16,-0.17 0.16,-0.21l0 0c0.02,-0.08 -0.03,-0.17 -0.1,-0.22 -0.06,-0.04 -0.12,-0.04 -0.18,0 -0.02,0.02 -0.06,0.06 -0.06,0.1 0,0.12 -0.06,0.2 -0.06,0.2l0 0.01 -0.01 0c-0.29,-0.07 -0.45,0.2 -0.45,0.2 -0.11,0.26 -0.06,0.47 0.12,0.6 0,0 0,0 0.01,0z"/>
    <path class="fil2" d="M0.8 0.87c0,0 0,0 -0.01,0 0,-0.01 -0.2,-0.26 -0.44,-0.26 0,0 0,0 0,0 0,0 -0.01,0 -0.01,0 0,-0.01 0.01,-0.01 0.01,-0.01 0,0 0,0 0,0 0.13,0 0.24,0.07 0.32,0.13 0.08,0.06 0.13,0.13 0.13,0.13 0,0 0,0.01 0,0.01 0,0 0,0 0,0z"/>
    <path class="fil2" d="M0.62 1.11c0,0 0,0 -0.01,0 0,0 0,-0.04 -0.05,-0.09 -0.04,-0.05 -0.12,-0.11 -0.28,-0.15 -0.01,0 -0.01,-0.01 -0.01,-0.01 0,0 0.01,0 0.01,0 0.16,0.04 0.25,0.1 0.29,0.15 0.05,0.05 0.06,0.09 0.06,0.1 0,0 -0.01,0 -0.01,0 0,0 0,0 0,0z"/>
   </g>
  </g>
 </g>
</svg>
