<?xml version="1.0" encoding="UTF-8"?>
<!DOCTYPE svg PUBLIC "-//W3C//DTD SVG 1.1//EN" "http://www.w3.org/Graphics/SVG/1.1/DTD/svg11.dtd">
<!-- Creator: CorelDRAW 2020 (64-Bit) -->
<svg xmlns="http://www.w3.org/2000/svg" xml:space="preserve" width="153px" height="50px" version="1.1" style="shape-rendering:geometricPrecision; text-rendering:geometricPrecision; image-rendering:optimizeQuality; fill-rule:evenodd; clip-rule:evenodd"
viewBox="0 0 115.72 37.99"
 xmlns:xlink="http://www.w3.org/1999/xlink"
 xmlns:xodm="http://www.corel.com/coreldraw/odm/2003">
 <defs>
  <style type="text/css">
   <![CDATA[
    .fil50 {fill:black;fill-rule:nonzero}
    .fil42 {fill:#1D1D1B;fill-rule:nonzero}
    .fil0 {fill:#213242;fill-rule:nonzero}
    .fil41 {fill:#2B0001;fill-rule:nonzero}
    .fil40 {fill:#2C0001;fill-rule:nonzero}
    .fil39 {fill:#2D0001;fill-rule:nonzero}
    .fil38 {fill:#2E0001;fill-rule:nonzero}
    .fil37 {fill:#2F0001;fill-rule:nonzero}
    .fil36 {fill:#300001;fill-rule:nonzero}
    .fil35 {fill:#310001;fill-rule:nonzero}
    .fil34 {fill:#320001;fill-rule:nonzero}
    .fil33 {fill:#330001;fill-rule:nonzero}
    .fil32 {fill:#340001;fill-rule:nonzero}
    .fil31 {fill:#350001;fill-rule:nonzero}
    .fil30 {fill:#360001;fill-rule:nonzero}
    .fil29 {fill:#370001;fill-rule:nonzero}
    .fil28 {fill:#380101;fill-rule:nonzero}
    .fil27 {fill:#390101;fill-rule:nonzero}
    .fil26 {fill:#3A0101;fill-rule:nonzero}
    .fil25 {fill:#3C0101;fill-rule:nonzero}
    .fil24 {fill:#3D0101;fill-rule:nonzero}
    .fil23 {fill:#3F0101;fill-rule:nonzero}
    .fil22 {fill:#400101;fill-rule:nonzero}
    .fil21 {fill:#420101;fill-rule:nonzero}
    .fil20 {fill:#440101;fill-rule:nonzero}
    .fil19 {fill:#460101;fill-rule:nonzero}
    .fil18 {fill:#480101;fill-rule:nonzero}
    .fil1 {fill:#49535C;fill-rule:nonzero}
    .fil17 {fill:#4A0101;fill-rule:nonzero}
    .fil16 {fill:#4C0101;fill-rule:nonzero}
    .fil15 {fill:#4E0101;fill-rule:nonzero}
    .fil14 {fill:#510200;fill-rule:nonzero}
    .fil13 {fill:#530200;fill-rule:nonzero}
    .fil12 {fill:#560200;fill-rule:nonzero}
    .fil11 {fill:#590200;fill-rule:nonzero}
    .fil10 {fill:#5C0200;fill-rule:nonzero}
    .fil9 {fill:#5F0200;fill-rule:nonzero}
    .fil8 {fill:#620200;fill-rule:nonzero}
    .fil7 {fill:#660200;fill-rule:nonzero}
    .fil6 {fill:#690300;fill-rule:nonzero}
    .fil5 {fill:#6D0300;fill-rule:nonzero}
    .fil4 {fill:#710300;fill-rule:nonzero}
    .fil3 {fill:#750300;fill-rule:nonzero}
    .fil44 {fill:#B50102;fill-rule:nonzero}
    .fil48 {fill:#C7A57B;fill-rule:nonzero}
    .fil43 {fill:#C92C2C;fill-rule:nonzero}
    .fil2 {fill:#E1B783;fill-rule:nonzero}
    .fil52 {fill:white;fill-rule:nonzero}
    .fil47 {fill:url(#id0)}
    .fil46 {fill:url(#id1)}
    .fil45 {fill:url(#id2)}
    .fil56 {fill:url(#id3)}
    .fil55 {fill:url(#id4)}
    .fil54 {fill:url(#id5)}
    .fil51 {fill:url(#id6)}
    .fil49 {fill:url(#id7)}
    .fil53 {fill:url(#id8)}
   ]]>
  </style>
  <linearGradient id="id0" gradientUnits="userSpaceOnUse" x1="25.14" y1="30.48" x2="24.94" y2="30.88">
   <stop offset="0" style="stop-opacity:1; stop-color:#FF7E67"/>
   <stop offset="0.470588" style="stop-opacity:1; stop-color:#E4554A"/>
   <stop offset="1" style="stop-opacity:1; stop-color:#C92C2C"/>
  </linearGradient>
  <linearGradient id="id1" gradientUnits="userSpaceOnUse" xlink:href="#id0" x1="27.02" y1="31.62" x2="26.83" y2="31.83">
  </linearGradient>
  <linearGradient id="id2" gradientUnits="userSpaceOnUse" x1="26.66" y1="29.06" x2="26.93" y2="27.33">
   <stop offset="0" style="stop-opacity:1; stop-color:white"/>
   <stop offset="0.74902" style="stop-opacity:1; stop-color:#E3E3E3"/>
   <stop offset="1" style="stop-opacity:1; stop-color:#C6C6C6"/>
  </linearGradient>
  <linearGradient id="id3" gradientUnits="userSpaceOnUse" x1="34.13" y1="14.25" x2="33.48" y2="15.19">
   <stop offset="0" style="stop-opacity:1; stop-color:#49535C"/>
   <stop offset="0.419608" style="stop-opacity:1; stop-color:#35434F"/>
   <stop offset="1" style="stop-opacity:1; stop-color:#213242"/>
  </linearGradient>
  <linearGradient id="id4" gradientUnits="userSpaceOnUse" xlink:href="#id3" x1="25.66" y1="11.1" x2="25.62" y2="11.65">
  </linearGradient>
  <radialGradient id="id5" gradientUnits="userSpaceOnUse" gradientTransform="matrix(0.785931 -0 -0 -0.851808 7 40)" cx="31.79" cy="21.43" r="34.65" fx="31.79" fy="21.43">
   <stop offset="0" style="stop-opacity:1; stop-color:#49535C"/>
   <stop offset="0.419608" style="stop-opacity:1; stop-color:#3A4752"/>
   <stop offset="1" style="stop-opacity:1; stop-color:#2C3B49"/>
  </radialGradient>
  <radialGradient id="id6" gradientUnits="userSpaceOnUse" gradientTransform="matrix(0.899497 -0 -0 -0.899368 3 38)" cx="25.11" cy="20.15" r="35.73" fx="25.11" fy="20.15">
   <stop offset="0" style="stop-opacity:1; stop-color:#49535C"/>
   <stop offset="0.419608" style="stop-opacity:1; stop-color:#35424F"/>
   <stop offset="1" style="stop-opacity:1; stop-color:#213242"/>
  </radialGradient>
  <radialGradient id="id7" gradientUnits="userSpaceOnUse" gradientTransform="matrix(0.870348 -0 -0 -0.870351 3 37)" cx="25.39" cy="20" r="79.15" fx="25.39" fy="20">
   <stop offset="0" style="stop-opacity:1; stop-color:#FEFCFE"/>
   <stop offset="0.419608" style="stop-opacity:1; stop-color:#F2F1F2"/>
   <stop offset="1" style="stop-opacity:1; stop-color:#E6E6E6"/>
  </radialGradient>
  <radialGradient id="id8" gradientUnits="userSpaceOnUse" gradientTransform="matrix(0.814868 -0 -0 -0.901336 6 41)" xlink:href="#id7" cx="32.71" cy="21.5" r="70.46" fx="32.71" fy="21.5">
  </radialGradient>
 </defs>
 <g id="Capa_x0020_1">
  <metadata id="CorelCorpID_0Corel-Layer"/>
  <g id="_1757212611392">
   <polygon class="fil0" points="48.23,34.24 51.23,34.24 51.23,23.72 55.38,23.72 55.38,21.28 44.08,21.28 44.08,23.72 48.23,23.72 "/>
   <path id="1" class="fil0" d="M63.72 24.28l0 4.93c0,1.83 -0.96,2.68 -2.3,2.68 -1.28,0 -2.02,-0.74 -2.02,-2.41l0 -5.2 -2.89 0 0 5.63c0,3.07 1.76,4.48 4.26,4.48 1.23,0 2.34,-0.46 3.1,-1.33l0 1.18 2.74 0 0 -9.96 -2.89 0z"/>
   <polygon id="2" class="fil0" points="69.5,34.24 79,34.24 79,31.8 72.5,31.8 72.5,21.28 69.5,21.28 "/>
   <path id="3" class="fil0" d="M85.15 34.39c3.17,0 5.47,-2.13 5.47,-5.13 0,-3 -2.3,-5.13 -5.47,-5.13 -3.16,0 -5.48,2.13 -5.48,5.13 0,3 2.32,5.13 5.48,5.13zm0 -2.37c-1.44,0 -2.55,-1.04 -2.55,-2.76 0,-1.72 1.11,-2.76 2.55,-2.76 1.45,0 2.54,1.04 2.54,2.76 0,1.72 -1.09,2.76 -2.54,2.76z"/>
   <path id="4" class="fil0" d="M100.08 24.28l0 1.28c-0.76,-0.97 -1.9,-1.43 -3.29,-1.43 -2.76,0 -4.99,1.91 -4.99,4.82 0,2.9 2.23,4.81 4.99,4.81 1.29,0 2.39,-0.41 3.15,-1.24l0 0.43c0,1.79 -0.89,2.72 -2.93,2.72 -1.28,0 -2.67,-0.44 -3.52,-1.13l-1.15 2.08c1.17,0.9 3,1.37 4.89,1.37 3.59,0 5.59,-1.71 5.59,-5.41l0 -8.3 -2.74 0zm-2.72 7.11c-1.52,0 -2.63,-0.98 -2.63,-2.44 0,-1.47 1.11,-2.45 2.63,-2.45 1.52,0 2.61,0.98 2.61,2.45 0,1.46 -1.09,2.44 -2.61,2.44z"/>
   <path id="5" class="fil0" d="M110.25 34.39c3.17,0 5.47,-2.13 5.47,-5.13 0,-3 -2.3,-5.13 -5.47,-5.13 -3.16,0 -5.48,2.13 -5.48,5.13 0,3 2.32,5.13 5.48,5.13zm0 -2.37c-1.44,0 -2.55,-1.04 -2.55,-2.76 0,-1.72 1.11,-2.76 2.55,-2.76 1.45,0 2.54,1.04 2.54,2.76 0,1.72 -1.09,2.76 -2.54,2.76z"/>
   <g>
    <path class="fil1" d="M26.28 11.02c-7.26,0 -13.17,5.99 -13.17,13.36 0,7.36 5.91,13.35 13.17,13.35 7.26,0 13.16,-5.99 13.16,-13.35 0,-7.37 -5.9,-13.36 -13.16,-13.36zm0 26.97c-7.4,0 -13.42,-6.11 -13.42,-13.61 0,-7.51 6.02,-13.61 13.42,-13.61 7.4,0 13.42,6.1 13.42,13.61 0,7.5 -6.02,13.61 -13.42,13.61z"/>
    <path class="fil2" d="M26.28 11.02c-7.26,0 -13.17,5.99 -13.17,13.36 0,7.36 5.91,13.35 13.17,13.35 7.26,0 13.16,-5.99 13.16,-13.35 0,-7.37 -5.9,-13.36 -13.16,-13.36z"/>
    <g>
     <image x="15.78" y="12.31" width="20.82" height="11.06" xlink:href="logo-text_Images\logo-text_ImgID1.png"/>
    </g>
    <path class="fil1" d="M23.04 23.98c-0.04,0 -0.08,-0.02 -0.1,-0.06 -0.87,-1.23 -2.95,-1.21 -2.98,-1.21l0 0c-0.07,0 -0.12,-0.06 -0.12,-0.13 0,-0.07 0.05,-0.12 0.12,-0.12 0.09,0 2.24,-0.02 3.18,1.32 0.04,0.06 0.03,0.13 -0.03,0.17 -0.02,0.02 -0.05,0.03 -0.07,0.03z"/>
    <path class="fil1" d="M22.52 25.14c-0.04,0 -0.08,-0.01 -0.1,-0.04 -0.8,-0.97 -1.22,-2.24 -1.23,-2.29 -0.02,-0.07 0.01,-0.14 0.08,-0.16 0.06,-0.02 0.13,0.01 0.16,0.08 0,0.01 0.42,1.28 1.18,2.21 0.05,0.05 0.04,0.13 -0.01,0.18 -0.03,0.01 -0.06,0.02 -0.08,0.02z"/>
    <path class="fil1" d="M36.12 27.06c-0.03,0 -0.05,-0.01 -0.07,-0.02 -1.99,-1.26 -2.65,-0.46 -2.66,-0.45 -0.04,0.05 -0.12,0.06 -0.17,0.02 -0.06,-0.04 -0.07,-0.12 -0.03,-0.18 0.04,-0.04 0.79,-0.99 2.99,0.4 0.06,0.04 0.08,0.11 0.04,0.17 -0.02,0.04 -0.06,0.06 -0.1,0.06z"/>
    <path class="fil1" d="M31.85 28.09c-0.06,0 -0.12,-0.04 -0.13,-0.11 -0.01,-0.06 0.04,-0.13 0.11,-0.14 0.02,0 2.12,-0.32 2.83,-1.6 0.03,-0.06 0.1,-0.09 0.17,-0.05 0.06,0.03 0.08,0.11 0.04,0.17 -0.76,1.4 -2.91,1.72 -3,1.73 -0.01,0 -0.02,0 -0.02,0z"/>
    <path class="fil3" d="M27.6 33.32c2.14,0.16 2.9,-2.51 2.97,-2.82l0 0c0.47,-1.55 1.28,-2.53 1.28,-2.53 -5.49,0.57 -9.33,-2.95 -9.33,-2.95 1.52,8.49 4.86,8.3 5.08,8.3l0 0z"/>
    <path class="fil3" d="M29.64 29.68c0,1.52 -0.77,2.85 -1.93,3.65 -0.04,0 -0.07,0 -0.11,-0.01l0 0c-0.21,0 -3.29,0.18 -4.88,-7.28 0.2,-0.14 0.41,-0.26 0.64,-0.37 1.1,0.76 3.2,1.96 5.92,2.28 0.23,0.53 0.36,1.12 0.36,1.73z"/>
    <path class="fil4" d="M29.58 29.68c0,1.52 -0.78,2.86 -1.97,3.64 0,0 -0.01,0 -0.01,0l0 0c-0.21,0 -3.27,0.18 -4.87,-7.22 0.22,-0.15 0.45,-0.28 0.69,-0.39 1.1,0.76 3.15,1.91 5.8,2.23 0.23,0.53 0.36,1.12 0.36,1.74z"/>
    <path class="fil5" d="M29.52 29.68c0,1.54 -0.81,2.88 -2.02,3.64 -0.57,-0.01 -3.28,-0.38 -4.76,-7.15 0.23,-0.17 0.48,-0.31 0.74,-0.42 1.1,0.75 3.1,1.85 5.67,2.18 0.23,0.54 0.37,1.13 0.37,1.75z"/>
    <path class="fil6" d="M29.46 29.68c0,1.54 -0.83,2.9 -2.06,3.64 -0.74,-0.07 -3.24,-0.72 -4.64,-7.09 0.24,-0.17 0.5,-0.32 0.77,-0.44 1.11,0.74 3.06,1.8 5.55,2.13 0.24,0.54 0.38,1.13 0.38,1.76z"/>
    <path class="fil7" d="M29.4 29.68c0,1.55 -0.85,2.9 -2.1,3.63 -0.84,-0.12 -3.18,-0.97 -4.53,-7.02 0.26,-0.18 0.53,-0.34 0.82,-0.46 1.11,0.73 3.01,1.75 5.42,2.08 0.25,0.54 0.39,1.14 0.39,1.77z"/>
    <path class="fil8" d="M29.34 29.68c0,1.56 -0.86,2.91 -2.13,3.61 -0.91,-0.17 -3.12,-1.16 -4.42,-6.93 0.26,-0.2 0.55,-0.36 0.86,-0.49 1.11,0.72 2.95,1.69 5.29,2.03 0.25,0.54 0.4,1.14 0.4,1.78z"/>
    <path class="fil9" d="M29.28 29.68c0,1.56 -0.88,2.91 -2.17,3.59 -0.95,-0.21 -3.04,-1.31 -4.31,-6.85 0.28,-0.21 0.59,-0.38 0.92,-0.51 1.09,0.71 2.89,1.64 5.14,1.98 0.27,0.54 0.42,1.15 0.42,1.79z"/>
    <path class="fil10" d="M29.22 29.68c0,1.56 -0.89,2.91 -2.19,3.57 -0.99,-0.26 -2.99,-1.45 -4.21,-6.77 0.29,-0.22 0.61,-0.4 0.96,-0.53 1.09,0.7 2.83,1.59 5.01,1.93 0.27,0.54 0.43,1.15 0.43,1.8z"/>
    <path class="fil11" d="M29.16 29.68c0,1.56 -0.91,2.91 -2.22,3.55 -1,-0.31 -2.91,-1.57 -4.11,-6.68 0.3,-0.24 0.64,-0.43 1.01,-0.56 1.08,0.68 2.77,1.53 4.88,1.88 0.28,0.54 0.44,1.16 0.44,1.81z"/>
    <path class="fil12" d="M29.1 29.68c0,1.56 -0.92,2.9 -2.24,3.52 -1.02,-0.35 -2.85,-1.66 -4.01,-6.59 0.31,-0.25 0.67,-0.44 1.05,-0.58 1.07,0.67 2.71,1.48 4.74,1.83 0.3,0.54 0.46,1.16 0.46,1.82z"/>
    <path class="fil13" d="M29.04 29.68c0,1.56 -0.93,2.89 -2.26,3.49 -1.03,-0.39 -2.78,-1.75 -3.92,-6.5 0.33,-0.26 0.7,-0.46 1.11,-0.6 1.06,0.65 2.64,1.43 4.6,1.77 0.3,0.55 0.47,1.18 0.47,1.84z"/>
    <path class="fil14" d="M28.98 29.68c0,1.55 -0.94,2.88 -2.28,3.46 -1.03,-0.43 -2.72,-1.82 -3.82,-6.4 0.34,-0.28 0.73,-0.49 1.15,-0.63 1.05,0.63 2.58,1.37 4.46,1.72 0.31,0.55 0.49,1.18 0.49,1.85z"/>
    <path class="fil15" d="M28.92 29.68c0,1.55 -0.95,2.87 -2.3,3.43 -1.03,-0.46 -2.65,-1.89 -3.73,-6.31 0.36,-0.29 0.77,-0.51 1.21,-0.65 1.03,0.62 2.51,1.32 4.32,1.67 0.32,0.54 0.5,1.18 0.5,1.86z"/>
    <path class="fil16" d="M28.86 29.68c0,1.54 -0.96,2.86 -2.31,3.39 -1.03,-0.49 -2.59,-1.94 -3.64,-6.2 0.36,-0.31 0.79,-0.54 1.26,-0.68 1.01,0.6 2.44,1.27 4.17,1.61 0.33,0.55 0.52,1.19 0.52,1.88z"/>
    <path class="fil17" d="M28.8 29.68c0,1.54 -0.97,2.85 -2.32,3.36 -1.03,-0.53 -2.53,-1.99 -3.56,-6.11 0.38,-0.32 0.83,-0.56 1.32,-0.7 0.99,0.58 2.36,1.22 4.02,1.55 0.34,0.56 0.54,1.2 0.54,1.9z"/>
    <path class="fil18" d="M28.74 29.68c0,1.53 -0.97,2.83 -2.33,3.32 -1.02,-0.55 -2.47,-2.03 -3.47,-6.01 0.39,-0.33 0.86,-0.58 1.38,-0.71 0.96,0.55 2.28,1.15 3.86,1.49 0.35,0.55 0.56,1.21 0.56,1.91z"/>
    <path class="fil19" d="M28.68 29.68c0,1.52 -0.98,2.81 -2.34,3.28 -1.01,-0.58 -2.4,-2.07 -3.38,-5.9 0.4,-0.35 0.89,-0.61 1.43,-0.74 0.94,0.53 2.2,1.1 3.7,1.43 0.37,0.55 0.59,1.22 0.59,1.93z"/>
    <path class="fil20" d="M28.62 29.68c0,1.51 -0.99,2.8 -2.35,3.24 -1,-0.6 -2.34,-2.09 -3.3,-5.8 0.42,-0.36 0.93,-0.63 1.5,-0.76 0.91,0.51 2.11,1.05 3.54,1.37 0.38,0.55 0.61,1.23 0.61,1.95z"/>
    <path class="fil21" d="M28.56 29.68c0,1.51 -0.99,2.78 -2.36,3.2 -0.98,-0.63 -2.28,-2.12 -3.21,-5.69 0.43,-0.39 0.97,-0.66 1.56,-0.78 0.88,0.48 2.03,0.99 3.37,1.3 0.4,0.55 0.64,1.23 0.64,1.97z"/>
    <path class="fil22" d="M28.5 29.68c0,1.5 -1,2.76 -2.37,3.16 -0.96,-0.65 -2.21,-2.14 -3.12,-5.59 0.44,-0.4 1,-0.69 1.62,-0.8 0.85,0.46 1.93,0.93 3.2,1.24 0.42,0.55 0.67,1.24 0.67,1.99z"/>
    <path class="fil23" d="M28.44 29.68c0,1.49 -1,2.74 -2.37,3.11 -0.95,-0.66 -2.15,-2.15 -3.05,-5.47 0.46,-0.43 1.05,-0.72 1.69,-0.82 0.82,0.43 1.84,0.87 3.03,1.17 0.44,0.55 0.7,1.25 0.7,2.01z"/>
    <path class="fil24" d="M28.38 29.68c0,1.48 -1.01,2.72 -2.37,3.07 -0.94,-0.68 -2.1,-2.16 -2.97,-5.37 0.47,-0.44 1.08,-0.75 1.76,-0.84 0.78,0.41 1.74,0.82 2.84,1.1 0.46,0.55 0.74,1.26 0.74,2.04z"/>
    <path class="fil25" d="M28.32 29.68c0,1.47 -1.01,2.69 -2.38,3.02 -0.91,-0.69 -2.03,-2.16 -2.88,-5.25 0.49,-0.47 1.13,-0.78 1.84,-0.86 0.73,0.38 1.62,0.75 2.64,1.02 0.49,0.55 0.78,1.28 0.78,2.07z"/>
    <path class="fil26" d="M28.26 29.68c0,1.45 -1.01,2.67 -2.38,2.97 -0.89,-0.7 -1.98,-2.16 -2.8,-5.13 0.5,-0.5 1.17,-0.82 1.92,-0.88 0.69,0.35 1.51,0.69 2.43,0.95 0.52,0.54 0.83,1.28 0.83,2.09z"/>
    <path class="fil27" d="M28.2 29.68c0,1.44 -1.02,2.64 -2.38,2.92 -0.88,-0.71 -1.92,-2.15 -2.72,-5.02 0.51,-0.52 1.22,-0.85 2.01,-0.88 0.63,0.31 1.37,0.61 2.2,0.85 0.55,0.54 0.89,1.3 0.89,2.13z"/>
    <path class="fil28" d="M28.14 29.68c0,1.43 -1.02,2.62 -2.38,2.88 -0.85,-0.73 -1.86,-2.15 -2.65,-4.91 0.54,-0.55 1.28,-0.9 2.11,-0.9l0.01 0.01c0.57,0.27 1.23,0.54 1.96,0.76 0.58,0.53 0.95,1.3 0.95,2.16z"/>
    <path class="fil29" d="M28.08 29.68c0,1.42 -1.02,2.59 -2.37,2.83 -0.84,-0.74 -1.81,-2.14 -2.58,-4.8 0.53,-0.55 1.27,-0.9 2.09,-0.9 0.05,0 0.09,0.01 0.14,0.01 0.5,0.23 1.07,0.46 1.69,0.65 0.63,0.53 1.03,1.32 1.03,2.21z"/>
    <path class="fil30" d="M28.02 29.68c0,1.4 -1.03,2.57 -2.37,2.77 -0.82,-0.74 -1.75,-2.12 -2.5,-4.67 0.52,-0.56 1.25,-0.91 2.07,-0.91 0.1,0 0.2,0.01 0.3,0.02 0.41,0.19 0.87,0.37 1.36,0.53 0.7,0.51 1.14,1.33 1.14,2.26z"/>
    <path class="fil31" d="M27.97 29.68c0,1.39 -1.04,2.54 -2.38,2.72 -0.8,-0.75 -1.69,-2.1 -2.42,-4.55 0.51,-0.56 1.24,-0.92 2.05,-0.92 0.17,0 0.34,0.02 0.5,0.05 0.3,0.13 0.62,0.25 0.95,0.37 0.78,0.49 1.3,1.35 1.3,2.33z"/>
    <path class="fil32" d="M27.91 29.68c0,1.38 -1.04,2.51 -2.37,2.67 -0.78,-0.75 -1.64,-2.08 -2.35,-4.43 0.5,-0.57 1.22,-0.93 2.03,-0.93 1.48,0 2.69,1.21 2.69,2.69z"/>
    <path class="fil33" d="M27.85 29.68c0,1.36 -1.04,2.48 -2.37,2.61 -0.75,-0.75 -1.58,-2.05 -2.27,-4.31 0.49,-0.56 1.2,-0.93 2.01,-0.93 1.45,0 2.63,1.18 2.63,2.63z"/>
    <path class="fil33" d="M27.79 29.68c0,1.35 -1.04,2.45 -2.36,2.56 -0.73,-0.75 -1.53,-2.03 -2.2,-4.19 0.47,-0.57 1.19,-0.94 1.99,-0.94 1.42,0 2.57,1.15 2.57,2.57z"/>
    <path class="fil34" d="M27.73 29.68c0,1.33 -1.04,2.42 -2.36,2.5 -0.71,-0.75 -1.47,-1.99 -2.12,-4.06 0.46,-0.58 1.17,-0.95 1.97,-0.95 1.38,0 2.51,1.13 2.51,2.51z"/>
    <path class="fil35" d="M27.67 29.68c0,1.32 -1.04,2.39 -2.35,2.45 -0.69,-0.75 -1.42,-1.97 -2.04,-3.94 0.44,-0.58 1.15,-0.96 1.94,-0.96 1.35,0 2.45,1.1 2.45,2.45z"/>
    <path class="fil35" d="M27.61 29.68c0,1.3 -1.05,2.36 -2.34,2.39 -0.66,-0.74 -1.37,-1.93 -1.97,-3.81 0.43,-0.59 1.13,-0.97 1.92,-0.97 1.32,0 2.39,1.07 2.39,2.39z"/>
    <path class="fil36" d="M27.55 29.68c0,1.29 -1.05,2.33 -2.33,2.33l0 0c-0.64,-0.74 -1.32,-1.89 -1.9,-3.68 0.42,-0.59 1.12,-0.98 1.9,-0.98 1.28,0 2.33,1.04 2.33,2.33z"/>
    <path class="fil37" d="M27.49 29.68c0,1.25 -1.02,2.27 -2.27,2.27 -0.02,0 -0.04,0 -0.06,0 -0.61,-0.73 -1.26,-1.84 -1.82,-3.55 0.41,-0.6 1.1,-0.99 1.88,-0.99 1.25,0 2.27,1.02 2.27,2.27z"/>
    <path class="fil37" d="M27.43 29.68c0,1.22 -0.99,2.21 -2.21,2.21 -0.04,0 -0.07,0 -0.11,0 -0.59,-0.72 -1.2,-1.8 -1.74,-3.42 0.39,-0.6 1.07,-1 1.85,-1 1.22,0 2.21,0.99 2.21,2.21z"/>
    <path class="fil37" d="M27.37 29.68c0,1.19 -0.96,2.15 -2.15,2.15 -0.05,0 -0.11,0 -0.16,-0.01 -0.56,-0.7 -1.15,-1.74 -1.67,-3.27 0.38,-0.61 1.06,-1.02 1.83,-1.02 1.19,0 2.15,0.96 2.15,2.15z"/>
    <path class="fil38" d="M27.31 29.68c0,1.16 -0.94,2.09 -2.09,2.09 -0.07,0 -0.14,0 -0.21,-0.01 -0.54,-0.69 -1.1,-1.7 -1.59,-3.14 0.36,-0.62 1.03,-1.03 1.8,-1.03 1.15,0 2.09,0.94 2.09,2.09z"/>
    <path class="fil38" d="M27.25 29.68c0,1.12 -0.91,2.03 -2.03,2.03 -0.09,0 -0.17,0 -0.26,-0.02 -0.52,-0.67 -1.04,-1.63 -1.52,-3 0.35,-0.62 1.02,-1.04 1.78,-1.04 1.12,0 2.03,0.91 2.03,2.03z"/>
    <path class="fil39" d="M27.19 29.68c0,1.09 -0.88,1.97 -1.97,1.97 -0.11,0 -0.21,-0.01 -0.31,-0.02 -0.49,-0.66 -0.99,-1.58 -1.44,-2.86 0.33,-0.63 0.99,-1.06 1.75,-1.06 1.09,0 1.97,0.88 1.97,1.97z"/>
    <path class="fil39" d="M27.13 29.68c0,1.06 -0.86,1.91 -1.91,1.91 -0.12,0 -0.24,-0.01 -0.36,-0.03 -0.46,-0.64 -0.93,-1.52 -1.36,-2.71 0.31,-0.64 0.96,-1.08 1.72,-1.08 1.05,0 1.91,0.86 1.91,1.91z"/>
    <path class="fil39" d="M27.07 29.68c0,1.02 -0.83,1.85 -1.85,1.85 -0.14,0 -0.28,-0.01 -0.41,-0.04 -0.44,-0.62 -0.88,-1.45 -1.28,-2.56 0.29,-0.65 0.93,-1.1 1.69,-1.1 1.02,0 1.85,0.83 1.85,1.85z"/>
    <path class="fil39" d="M27.01 29.68c0,0.99 -0.8,1.79 -1.79,1.79 -0.16,0 -0.32,-0.02 -0.46,-0.06 -0.41,-0.59 -0.82,-1.38 -1.2,-2.4 0.26,-0.66 0.91,-1.12 1.66,-1.12 0.99,0 1.79,0.8 1.79,1.79z"/>
    <path class="fil40" d="M26.95 29.68c0,0.96 -0.78,1.73 -1.73,1.73 -0.18,0 -0.35,-0.02 -0.52,-0.08 -0.38,-0.56 -0.76,-1.3 -1.11,-2.24 0.24,-0.66 0.88,-1.14 1.63,-1.14 0.95,0 1.73,0.77 1.73,1.73z"/>
    <path class="fil40" d="M26.89 29.68c0,0.92 -0.75,1.67 -1.67,1.67 -0.2,0 -0.39,-0.03 -0.57,-0.1 -0.35,-0.53 -0.7,-1.21 -1.03,-2.07 0.21,-0.68 0.85,-1.17 1.6,-1.17 0.92,0 1.67,0.75 1.67,1.67z"/>
    <path class="fil40" d="M26.83 29.68c0,0.89 -0.72,1.61 -1.61,1.61 -0.22,0 -0.43,-0.04 -0.62,-0.12 -0.32,-0.51 -0.64,-1.13 -0.94,-1.9 0.18,-0.69 0.81,-1.2 1.56,-1.2 0.89,0 1.61,0.72 1.61,1.61z"/>
    <path class="fil40" d="M26.77 29.68c0,0.86 -0.69,1.55 -1.55,1.55 -0.25,0 -0.48,-0.05 -0.68,-0.15 -0.29,-0.47 -0.57,-1.03 -0.84,-1.71 0.14,-0.71 0.77,-1.24 1.52,-1.24 0.86,0 1.55,0.69 1.55,1.55z"/>
    <path class="fil40" d="M26.71 29.68c0,0.83 -0.67,1.49 -1.49,1.49 -0.27,0 -0.52,-0.07 -0.74,-0.19 -0.25,-0.42 -0.5,-0.92 -0.74,-1.5 0.1,-0.73 0.72,-1.29 1.48,-1.29 0.82,0 1.49,0.67 1.49,1.49z"/>
    <path class="fil40" d="M26.65 29.68c0,0.79 -0.64,1.43 -1.43,1.43 -0.3,0 -0.58,-0.09 -0.81,-0.24 -0.21,-0.37 -0.42,-0.79 -0.62,-1.28 0.04,-0.75 0.67,-1.34 1.43,-1.34 0.79,0 1.43,0.64 1.43,1.43z"/>
    <path class="fil40" d="M26.59 29.68c0,0.76 -0.61,1.37 -1.37,1.37 -0.34,0 -0.64,-0.12 -0.88,-0.31 -0.17,-0.3 -0.33,-0.64 -0.49,-1.01 0,-0.02 0,-0.03 0,-0.05 0,-0.76 0.61,-1.37 1.37,-1.37 0.76,0 1.37,0.61 1.37,1.37z"/>
    <path class="fil41" d="M26.53 29.68c0,0.73 -0.59,1.31 -1.31,1.31 -0.39,0 -0.73,-0.16 -0.97,-0.43 -0.11,-0.2 -0.22,-0.42 -0.33,-0.65 -0.01,-0.08 -0.01,-0.15 -0.01,-0.23 0,-0.72 0.58,-1.31 1.31,-1.31 0.72,0 1.31,0.59 1.31,1.31z"/>
    <path class="fil41" d="M26.47 29.68c0,0.69 -0.56,1.25 -1.25,1.25 -0.69,0 -1.26,-0.56 -1.26,-1.25 0,-0.69 0.57,-1.25 1.26,-1.25 0.69,0 1.25,0.56 1.25,1.25z"/>
    <path class="fil41" d="M26.41 29.68c0,0.66 -0.53,1.19 -1.19,1.19 -0.66,0 -1.2,-0.53 -1.2,-1.19 0,-0.66 0.54,-1.19 1.2,-1.19 0.66,0 1.19,0.53 1.19,1.19z"/>
    <path class="fil41" d="M26.35 29.68c0,0.63 -0.51,1.14 -1.13,1.14 -0.63,0 -1.14,-0.51 -1.14,-1.14 0,-0.63 0.51,-1.13 1.14,-1.13 0.62,0 1.13,0.5 1.13,1.13z"/>
    <path class="fil41" d="M26.29 29.68c0,0.59 -0.48,1.08 -1.07,1.08 -0.59,0 -1.08,-0.49 -1.08,-1.08 0,-0.59 0.49,-1.07 1.08,-1.07 0.59,0 1.07,0.48 1.07,1.07z"/>
    <path class="fil41" d="M26.23 29.68c0,0.56 -0.45,1.02 -1.01,1.02 -0.56,0 -1.02,-0.46 -1.02,-1.02 0,-0.56 0.46,-1.01 1.02,-1.01 0.56,0 1.01,0.45 1.01,1.01z"/>
    <path class="fil41" d="M26.17 29.68c0,0.53 -0.42,0.96 -0.95,0.96 -0.53,0 -0.96,-0.43 -0.96,-0.96 0,-0.53 0.43,-0.95 0.96,-0.95 0.53,0 0.95,0.42 0.95,0.95z"/>
    <path class="fil41" d="M26.11 29.68c0,0.5 -0.4,0.9 -0.89,0.9 -0.5,0 -0.9,-0.4 -0.9,-0.9 0,-0.49 0.4,-0.89 0.9,-0.89 0.49,0 0.89,0.4 0.89,0.89z"/>
    <path class="fil41" d="M26.05 29.68c0,0.46 -0.37,0.84 -0.83,0.84 -0.46,0 -0.84,-0.38 -0.84,-0.84 0,-0.46 0.38,-0.84 0.84,-0.84 0.46,0 0.83,0.38 0.83,0.84z"/>
    <path class="fil41" d="M25.99 29.68c0,0.43 -0.34,0.78 -0.77,0.78 -0.43,0 -0.78,-0.35 -0.78,-0.78 0,-0.43 0.35,-0.78 0.78,-0.78 0.43,0 0.77,0.35 0.77,0.78z"/>
    <path class="fil41" d="M25.94 29.68c0,0.4 -0.33,0.72 -0.72,0.72 -0.4,0 -0.72,-0.32 -0.72,-0.72 0,-0.4 0.32,-0.72 0.72,-0.72 0.39,0 0.72,0.32 0.72,0.72z"/>
    <path class="fil41" d="M25.88 29.68c0,0.36 -0.3,0.66 -0.66,0.66 -0.36,0 -0.66,-0.3 -0.66,-0.66 0,-0.36 0.3,-0.66 0.66,-0.66 0.36,0 0.66,0.3 0.66,0.66z"/>
    <path class="fil41" d="M25.82 29.68c0,0.33 -0.27,0.6 -0.6,0.6 -0.33,0 -0.6,-0.27 -0.6,-0.6 0,-0.33 0.27,-0.6 0.6,-0.6 0.33,0 0.6,0.27 0.6,0.6z"/>
    <path class="fil41" d="M25.76 29.68c0,0.3 -0.24,0.54 -0.54,0.54 -0.3,0 -0.54,-0.24 -0.54,-0.54 0,-0.3 0.24,-0.54 0.54,-0.54 0.3,0 0.54,0.24 0.54,0.54z"/>
    <path class="fil41" d="M25.7 29.68c0,0.26 -0.22,0.48 -0.48,0.48 -0.27,0 -0.48,-0.22 -0.48,-0.48 0,-0.26 0.21,-0.48 0.48,-0.48 0.26,0 0.48,0.22 0.48,0.48z"/>
    <path class="fil41" d="M25.64 29.68c0,0.23 -0.19,0.42 -0.42,0.42 -0.23,0 -0.42,-0.19 -0.42,-0.42 0,-0.23 0.19,-0.42 0.42,-0.42 0.23,0 0.42,0.19 0.42,0.42z"/>
    <path class="fil41" d="M25.58 29.68c0,0.2 -0.16,0.36 -0.36,0.36 -0.2,0 -0.36,-0.16 -0.36,-0.36 0,-0.2 0.16,-0.36 0.36,-0.36 0.2,0 0.36,0.16 0.36,0.36z"/>
    <path class="fil41" d="M25.52 29.68c0,0.17 -0.14,0.3 -0.3,0.3 -0.17,0 -0.3,-0.13 -0.3,-0.3 0,-0.16 0.13,-0.3 0.3,-0.3 0.16,0 0.3,0.14 0.3,0.3z"/>
    <path class="fil41" d="M25.46 29.68c0,0.13 -0.11,0.24 -0.24,0.24 -0.13,0 -0.24,-0.11 -0.24,-0.24 0,-0.13 0.11,-0.24 0.24,-0.24 0.13,0 0.24,0.11 0.24,0.24z"/>
    <path class="fil41" d="M25.4 29.68c0,0.1 -0.08,0.18 -0.18,0.18 -0.1,0 -0.18,-0.08 -0.18,-0.18 0,-0.1 0.08,-0.18 0.18,-0.18 0.1,0 0.18,0.08 0.18,0.18z"/>
    <path class="fil41" d="M25.34 29.68c0,0.07 -0.06,0.12 -0.12,0.12 -0.07,0 -0.12,-0.05 -0.12,-0.12 0,-0.07 0.05,-0.12 0.12,-0.12 0.06,0 0.12,0.05 0.12,0.12z"/>
    <path class="fil41" d="M25.28 29.68c0,0.03 -0.03,0.06 -0.06,0.06 -0.03,0 -0.06,-0.03 -0.06,-0.06 0,-0.03 0.03,-0.06 0.06,-0.06 0.03,0 0.06,0.03 0.06,0.06z"/>
    <path class="fil42" d="M27.6 33.2c0,0 0.01,0 0.01,0 2.12,0.16 2.81,-2.61 2.84,-2.73 0.34,-1.14 0.86,-1.97 1.13,-2.35 -4.52,0.36 -7.92,-2.03 -8.88,-2.78 1.42,7.45 4.26,7.86 4.87,7.86 0,0 0.01,0 0.01,0l0.02 0zm0.18 0.26c-0.06,0 -0.12,-0.01 -0.18,-0.01l-0.01 0c-0.42,0.01 -1.25,-0.13 -2.19,-1.06 -1.37,-1.36 -2.38,-3.83 -3.01,-7.35 -0.01,-0.05 0.02,-0.11 0.07,-0.13 0.04,-0.03 0.1,-0.02 0.14,0.02 0.04,0.03 3.87,3.47 9.23,2.91 0.06,0 0.1,0.02 0.13,0.07 0.02,0.04 0.02,0.1 -0.02,0.14 0,0.01 -0.8,0.98 -1.25,2.49 -0.03,0.11 -0.73,2.92 -2.91,2.92z"/>
    <path class="fil43" d="M23.78 29.59c0.51,-0.01 1.46,0.16 1.99,1.29 0.12,-0.02 2.4,0.18 2.17,2.44 -0.11,0.01 -0.22,0.01 -0.34,0l0 0c-0.17,0 -2.2,0.12 -3.82,-3.73z"/>
    <path class="fil44" d="M27.81 33.33c0.08,-0.67 -0.07,-1.21 -0.43,-1.61 -0.57,-0.63 -1.48,-0.72 -1.6,-0.72 -0.05,0.01 -0.1,-0.02 -0.13,-0.07 -0.48,-1.04 -1.33,-1.21 -1.81,-1.22 -0.04,-0.08 -0.07,-0.16 -0.11,-0.25 0.52,-0.01 1.54,0.14 2.12,1.3 0.28,0.02 1.09,0.16 1.65,0.73 0.45,0.45 0.64,1.07 0.57,1.82 -0.08,0.01 -0.17,0.02 -0.26,0.02z"/>
    <path class="fil45" d="M27.63 29.74c0.32,0.07 2.33,0.66 2.98,-1.71 -3.29,-0.01 -5.85,-1.41 -7.16,-2.29 0.08,0.83 0.64,2.83 4.18,4l0 0z"/>
    <path class="fil44" d="M26.13 32.08c-0.07,0 -0.12,-0.05 -0.13,-0.11 -0.04,-0.34 -0.34,-1.03 -0.35,-1.04 -0.03,-0.06 0,-0.14 0.07,-0.16 0.06,-0.03 0.13,0 0.16,0.06 0.02,0.03 0.33,0.74 0.37,1.11 0.01,0.07 -0.04,0.13 -0.11,0.14 0,0 -0.01,0 -0.01,0z"/>
    <path class="fil1" d="M27.6 33.2l0.01 0c2.12,0.16 2.81,-2.61 2.84,-2.73 0.34,-1.14 0.86,-1.97 1.13,-2.35 -4.52,0.36 -7.92,-2.03 -8.88,-2.78 1.42,7.45 4.26,7.86 4.87,7.86 0,0 0.01,0 0.01,0l0.02 0zm0.18 0.26c-0.06,0 -0.12,-0.01 -0.18,-0.01l-0.01 0c-0.42,0.01 -1.25,-0.13 -2.19,-1.06 -1.37,-1.36 -2.38,-3.83 -3.01,-7.35l-0.06 -0.36 0.27 0.25c0.04,0.03 3.87,3.47 9.23,2.91l0.31 -0.03 -0.2 0.24c0,0.01 -0.8,0.98 -1.25,2.49 -0.03,0.11 -0.73,2.92 -2.91,2.92z"/>
    <path class="fil46" d="M26.47 31.3c-0.08,0.07 0.04,0.35 0.28,0.62l0 0c0.23,0.26 0.49,0.42 0.58,0.34l0 0c0.08,-0.08 -0.04,-0.35 -0.27,-0.62l0 0c-0.2,-0.22 -0.41,-0.36 -0.53,-0.36l0 0c-0.02,0 -0.04,0.01 -0.06,0.02l0 0z"/>
    <path class="fil47" d="M24.62 30.14l0 0c-0.03,0 -0.06,0.01 -0.08,0.03l0 0c-0.11,0.1 0.02,0.43 0.29,0.74l0 0c0.27,0.3 0.58,0.47 0.7,0.38l0 0c0.11,-0.1 -0.03,-0.43 -0.3,-0.74l0 0c-0.22,-0.25 -0.46,-0.41 -0.61,-0.41z"/>
    <path class="fil48" d="M29.59 33.69c0.03,0.03 -0.04,0.14 -0.17,0.28 -0.14,0.14 -0.35,0.32 -0.63,0.46 -0.28,0.15 -0.62,0.26 -0.98,0.31 -0.35,0.04 -0.71,0.02 -1,-0.04 -0.3,-0.06 -0.62,-0.18 -0.91,-0.34 -0.3,-0.15 -0.57,-0.34 -0.79,-0.53 -0.44,-0.38 -0.67,-0.76 -0.6,-0.83 0.07,-0.07 0.41,0.16 0.89,0.41 0.23,0.12 0.5,0.25 0.77,0.35 0.27,0.11 0.54,0.19 0.78,0.24 0.25,0.05 0.53,0.08 0.82,0.08 0.28,0 0.58,-0.05 0.84,-0.12 0.26,-0.06 0.49,-0.16 0.66,-0.22 0.17,-0.07 0.29,-0.09 0.32,-0.05z"/>
    <path class="fil48" d="M28.39 19.72c0,2.31 -1.3,4.2 -2.93,4.35 -0.6,-2.03 -2.04,-3.06 -3.3,-3.58 -0.03,-0.25 -0.04,-0.51 -0.04,-0.77 0,-2.41 1.4,-4.36 3.13,-4.36 1.73,0 3.14,1.95 3.14,4.36z"/>
    <path class="fil0" d="M28.11 19.89c0,2.13 -1.24,3.85 -2.76,3.85l0 0c-0.56,-1.56 -1.64,-2.48 -2.69,-3.02 -0.04,-0.27 -0.06,-0.55 -0.06,-0.83 0,-2.13 1.23,-3.86 2.75,-3.86 1.52,0 2.76,1.73 2.76,3.86z"/>
    <path class="fil49" d="M25.38 23.57l0.01 0c1.41,0 2.56,-1.6 2.56,-3.57l0 0c0,-1.97 -1.15,-3.57 -2.56,-3.57l0 0c-1.42,0 -2.57,1.6 -2.57,3.57 0,0.29 0.03,0.58 0.07,0.85l0 0c0.94,0.53 1.86,1.37 2.39,2.72l0 0c0.04,0 0.07,0 0.1,0z"/>
    <path class="fil50" d="M26.64 20.15c0,1.07 -0.68,1.95 -1.53,1.95 -0.84,0 -1.53,-0.88 -1.53,-1.95 0,-1.08 0.69,-1.95 1.53,-1.95 0.85,0 1.53,0.87 1.53,1.95z"/>
    <path class="fil51" d="M23.85 20.15c0,0.89 0.56,1.61 1.26,1.61 0.7,0 1.27,-0.72 1.27,-1.61l0 0c0,-0.89 -0.57,-1.61 -1.27,-1.61l0 0c-0.7,0 -1.26,0.72 -1.26,1.61z"/>
    <path class="fil50" d="M25.93 20.19c0,0.6 -0.37,1.08 -0.82,1.08 -0.45,0 -0.81,-0.48 -0.81,-1.08 0,-0.59 0.36,-1.08 0.81,-1.08 0.45,0 0.82,0.49 0.82,1.08z"/>
    <path class="fil52" d="M25.11 19.43c0,0.25 -0.2,0.46 -0.45,0.46 -0.26,0 -0.46,-0.21 -0.46,-0.46 0,-0.25 0.2,-0.46 0.46,-0.46 0.25,0 0.45,0.21 0.45,0.46z"/>
    <path class="fil52" d="M25.57 21.15c0,0.18 -0.15,0.32 -0.32,0.32 -0.17,0 -0.32,-0.14 -0.32,-0.32 0,-0.17 0.15,-0.31 0.32,-0.31 0.17,0 0.32,0.14 0.32,0.31z"/>
    <path class="fil48" d="M35.19 20.14c0.51,1.38 0.43,2.78 -0.12,3.71 -0.83,0.02 -1.71,0.51 -2.38,0.99 -1.08,-0.29 -2.14,-1.33 -2.68,-2.78 -0.76,-2.05 -0.21,-4.13 1.22,-4.66 1.43,-0.54 3.2,0.69 3.96,2.74z"/>
    <path class="fil0" d="M35.03 20.45c0.47,1.27 0.38,2.57 -0.14,3.41 -0.73,0.08 -1.49,0.49 -2.1,0.91 -1.03,-0.22 -2.04,-1.18 -2.54,-2.55 -0.69,-1.86 -0.18,-3.76 1.14,-4.25 1.32,-0.49 2.95,0.62 3.64,2.48z"/>
    <path class="fil53" d="M31.47 18.43c-1.23,0.46 -1.72,2.2 -1.09,3.9l0 0c0.49,1.33 1.53,2.24 2.55,2.35 0.5,-0.34 1.09,-0.65 1.68,-0.77l0 0c0.56,-0.78 0.68,-2.02 0.23,-3.24l0 0c-0.53,-1.42 -1.67,-2.35 -2.75,-2.35l0 0c-0.21,0 -0.42,0.03 -0.62,0.11l0 0z"/>
    <path class="fil50" d="M33.08 21.1c0.31,0.98 -0.03,1.95 -0.74,2.17 -0.71,0.22 -1.53,-0.4 -1.83,-1.38 -0.31,-0.98 0.03,-1.95 0.74,-2.17 0.71,-0.21 1.53,0.4 1.83,1.38z"/>
    <path class="fil54" d="M31.33 19.97c-0.62,0.19 -0.9,1.03 -0.64,1.87l0 0c0.25,0.84 0.96,1.37 1.57,1.18l0 0c0.62,-0.19 0.9,-1.02 0.64,-1.86l0 0c-0.22,-0.73 -0.78,-1.23 -1.32,-1.23l0 0c-0.09,0 -0.17,0.02 -0.25,0.04l0 0z"/>
    <path class="fil50" d="M32.52 21.31c0.18,0.57 -0.02,1.13 -0.43,1.26 -0.41,0.13 -0.89,-0.23 -1.07,-0.79 -0.17,-0.57 0.03,-1.13 0.44,-1.26 0.41,-0.13 0.89,0.23 1.06,0.79z"/>
    <path class="fil52" d="M31.54 20.82c0,0.26 -0.21,0.48 -0.47,0.48 -0.26,0 -0.47,-0.22 -0.47,-0.48 0,-0.26 0.21,-0.47 0.47,-0.47 0.26,0 0.47,0.21 0.47,0.47z"/>
    <path class="fil52" d="M32.52 22.2c0,0.18 -0.14,0.32 -0.32,0.32 -0.18,0 -0.32,-0.14 -0.32,-0.32 0,-0.18 0.14,-0.32 0.32,-0.32 0.18,0 0.32,0.14 0.32,0.32z"/>
    <path class="fil1" d="M25.68 25.33c-0.06,0 -0.11,-0.05 -0.12,-0.12 -0.24,-2.04 -1.25,-3.52 -3.01,-4.4 -1.31,-0.66 -2.58,-0.72 -2.59,-0.72 -0.07,0 -0.13,-0.06 -0.12,-0.13 0,-0.07 0.06,-0.12 0.13,-0.12 0.05,0 1.32,0.06 2.69,0.74 1.26,0.63 2.84,1.94 3.15,4.61 0.01,0.06 -0.04,0.13 -0.11,0.13 -0.01,0.01 -0.01,0.01 -0.02,0.01z"/>
    <path class="fil1" d="M31.49 25.97c-0.03,0 -0.06,-0.01 -0.08,-0.03 -0.05,-0.05 -0.05,-0.13 -0.01,-0.18 0.13,-0.13 3.18,-3.23 5.04,-1.53 0.05,0.05 0.05,0.13 0.01,0.18 -0.05,0.05 -0.13,0.05 -0.18,0 -1.68,-1.53 -4.66,1.5 -4.69,1.53 -0.02,0.02 -0.05,0.03 -0.09,0.03z"/>
    <path class="fil48" d="M23.5 13.74c0,0 2.42,-1.61 3.73,-1.3 -0.06,-0.3 -0.53,-0.65 -0.53,-0.65l-0.75 -0.13 -1 0.68 -1.45 1.4z"/>
    <path class="fil55" d="M25.5 11.1c-0.1,0.03 -0.18,0.07 -0.26,0.11l0 0c-0.08,0.04 -0.16,0.08 -0.23,0.12l0 0c-0.27,0.17 -0.53,0.41 -0.75,0.67l0 0 -0.17 0.2c-0.05,0.06 -0.09,0.13 -0.14,0.2l0 0c-0.1,0.13 -0.18,0.27 -0.25,0.4l0 0c-0.29,0.53 -0.42,0.98 -0.3,1.05l0 0c0.12,0.08 0.46,-0.22 0.87,-0.6l0 0c0.1,-0.09 0.2,-0.19 0.32,-0.29l0 0c0.05,-0.05 0.11,-0.1 0.16,-0.15l0 0 0.17 -0.14c0.22,-0.19 0.44,-0.36 0.63,-0.47l0 0c0.19,-0.12 0.38,-0.21 0.56,-0.23l0 0c0.08,-0.01 0.16,-0.01 0.25,0.01l0 0c0.09,0.02 0.18,0.07 0.27,0.13l0 0c0.17,0.11 0.33,0.27 0.45,0.39l0 0c0.12,0.11 0.21,0.19 0.28,0.16l0 0c0.06,-0.02 0.1,-0.14 0.08,-0.33l0 0c-0.02,-0.19 -0.1,-0.46 -0.3,-0.73l0 0c-0.1,-0.14 -0.23,-0.28 -0.41,-0.38l0 0c-0.18,-0.11 -0.4,-0.18 -0.62,-0.2l0 0c-0.03,0 -0.06,0 -0.09,0l0 0c-0.18,0 -0.36,0.03 -0.52,0.08l0 0z"/>
    <path class="fil48" d="M32.07 14.58c0,0 1.96,0.69 2.43,1.95 -0.04,-0.52 -0.16,-1.06 -0.16,-1.06l-0.25 -0.89 -0.81 -0.72 -0.82 0.35 -0.39 0.37z"/>
    <path class="fil56" d="M32.79 13.62c-0.18,0.07 -0.31,0.17 -0.41,0.27l0 0c-0.11,0.1 -0.19,0.2 -0.25,0.3l0 0c-0.06,0.09 -0.1,0.18 -0.13,0.26l0 0c-0.05,0.16 -0.05,0.27 0.01,0.31l0 0c0.06,0.04 0.16,0.01 0.3,-0.06l0 0c0.13,-0.06 0.3,-0.15 0.47,-0.21l0 0c0.09,-0.03 0.18,-0.05 0.25,-0.05l0 0c0.07,0 0.11,0.02 0.14,0.04l0 0c0.04,0.03 0.08,0.05 0.13,0.11l0 0c0.02,0.02 0.05,0.05 0.07,0.08l0 0c0.02,0.03 0.05,0.07 0.08,0.1l0 0c0.09,0.14 0.21,0.34 0.32,0.55l0 0c0.12,0.21 0.23,0.45 0.33,0.66l0 0c0.21,0.43 0.41,0.77 0.55,0.75l0 0c0.13,-0.03 0.19,-0.42 0.15,-0.93l0 0c-0.04,-0.51 -0.19,-1.14 -0.52,-1.62l0 0c-0.04,-0.06 -0.09,-0.12 -0.14,-0.18l0 0c-0.06,-0.06 -0.12,-0.12 -0.19,-0.18l0 0c-0.14,-0.11 -0.33,-0.21 -0.55,-0.25l0 0c-0.06,-0.02 -0.13,-0.02 -0.2,-0.02l0 0c-0.15,0 -0.29,0.02 -0.41,0.07l0 0z"/>
    <path class="fil1" d="M4.45 26.22c3.64,1.92 6.42,2.43 8.05,1.49 1.42,-0.83 1.5,-2.51 1.5,-2.53l0 -0.11 0.12 -0.01c1.87,-0.11 3.15,-0.67 3.8,-1.66 0.89,-1.37 0.33,-3.18 0.14,-3.7l-0.03 -0.09 0.08 -0.06c1.18,-0.76 1.83,-1.77 1.92,-3 0.19,-2.59 -2.15,-5.38 -2.47,-5.67l-0.15 -0.12 0.17 -0.08c3.05,-1.47 3.51,-3.78 3.56,-4.7l0.01 -0.05c0.4,-1.82 -0.55,-3.99 -2.21,-5.07 -1.33,-0.86 -2.82,-0.81 -4.09,0.15 -0.55,0.41 -1.33,1.34 -1.37,2.14 -0.13,2.77 -1.39,4.6 -1.44,4.67l-0.05 0.07 -0.08 -0.02c-6.77,-1.59 -10.34,4.68 -10.37,4.74 -2.37,5.75 -1.4,10.53 2.73,13.48 0.08,0.06 0.14,0.1 0.18,0.13zm6.09 2.21c-1.62,0 -3.7,-0.67 -6.22,-1.99l-0.02 -0.02c-0.03,-0.02 -0.09,-0.07 -0.18,-0.13 -0.55,-0.39 -2.22,-1.58 -3.25,-3.79 -1.29,-2.79 -1.15,-6.15 0.44,-9.98 0.08,-0.2 1.04,-1.79 2.83,-3.17 1.6,-1.23 4.25,-2.54 7.74,-1.74 0.23,-0.36 1.24,-2.07 1.35,-4.47 0.04,-0.83 0.78,-1.82 1.47,-2.34 1.35,-1.01 2.95,-1.07 4.38,-0.15 1.74,1.13 2.74,3.41 2.32,5.32l-0.01 0.03c-0.05,0.95 -0.52,3.3 -3.54,4.83 0.61,0.65 2.61,3.23 2.43,5.74 -0.1,1.28 -0.75,2.34 -1.95,3.14 0.23,0.65 0.71,2.44 -0.2,3.83 -0.68,1.04 -1.99,1.63 -3.89,1.76 -0.04,0.42 -0.27,1.85 -1.61,2.62 -0.58,0.34 -1.28,0.51 -2.09,0.51z"/>
    <path class="fil2" d="M4.45 26.22c3.64,1.92 6.42,2.43 8.05,1.49 1.42,-0.83 1.5,-2.51 1.5,-2.53l0 -0.11 0.12 -0.01c1.87,-0.11 3.15,-0.67 3.8,-1.66 0.89,-1.37 0.33,-3.18 0.14,-3.7l-0.03 -0.09 0.08 -0.06c1.18,-0.76 1.83,-1.77 1.92,-3 0.19,-2.59 -2.15,-5.38 -2.47,-5.67l-0.15 -0.12 0.17 -0.08c3.05,-1.47 3.51,-3.78 3.56,-4.7l0.01 -0.05c0.4,-1.82 -0.55,-3.99 -2.21,-5.07 -1.33,-0.86 -2.82,-0.81 -4.09,0.15 -0.55,0.41 -1.33,1.34 -1.37,2.14 -0.13,2.77 -1.39,4.6 -1.44,4.67l-0.05 0.07 -0.08 -0.02c-6.77,-1.59 -10.34,4.68 -10.37,4.74 -2.37,5.75 -1.4,10.53 2.73,13.48 0.08,0.06 0.14,0.1 0.18,0.13z"/>
    <path class="fil1" d="M18.18 19.78c-0.04,0 -0.08,-0.01 -0.1,-0.04 -0.05,-0.06 -4.69,-5.82 -10.06,-5.82 -0.01,0 -0.03,0.01 -0.04,0 -0.07,0 -0.13,-0.05 -0.13,-0.12 0,-0.07 0.06,-0.13 0.13,-0.13 0.01,0 0.03,0 0.04,0 2.87,0 5.5,1.6 7.2,2.95 1.85,1.46 3.04,2.94 3.06,2.96 0.04,0.05 0.03,0.13 -0.02,0.18 -0.03,0.01 -0.06,0.02 -0.08,0.02z"/>
    <path class="fil1" d="M14.12 25.31c-0.06,0 -0.11,-0.04 -0.12,-0.11 0,-0.01 -0.16,-0.91 -1.18,-2.02 -0.95,-1.04 -2.85,-2.46 -6.52,-3.4 -0.06,-0.02 -0.11,-0.09 -0.09,-0.15 0.02,-0.07 0.09,-0.11 0.15,-0.09 3.75,0.95 5.69,2.42 6.66,3.48 1.06,1.17 1.22,2.1 1.23,2.14 0.01,0.07 -0.04,0.14 -0.11,0.15 0,0 -0.01,0 -0.02,0z"/>
   </g>
  </g>
 </g>
</svg>
