<svg fill="#ffffff" viewBox="0 0 24 24" xmlns="http://www.w3.org/2000/svg"><g id="SVGRepo_bgCarrier" stroke-width="0"></g><g id="SVGRepo_tracerCarrier" stroke-linecap="round" stroke-linejoin="round"></g><g id="SVGRepo_iconCarrier"><path d="M4,21H20a3,3,0,0,0,3-3V6a3,3,0,0,0-3-3H4A3,3,0,0,0,1,6V18A3,3,0,0,0,4,21ZM3,6A1,1,0,0,1,4,5H20a1,1,0,0,1,1,1V18a1,1,0,0,1-1,1H4a1,1,0,0,1-1-1ZM5,16a1,1,0,0,1,1-1H9a1,1,0,0,1,0,2H6A1,1,0,0,1,5,16Zm0-3a1,1,0,0,1,1-1h6a1,1,0,0,1,0,2H6A1,1,0,0,1,5,13Z"></path></g></svg>